<svg width="167" height="321" viewBox="0 0 167 321" fill="none" xmlns="http://www.w3.org/2000/svg">
<path d="M49.0313 247.673C49.0313 224.843 48.9513 202.013 49.1113 179.193C49.1413 175.363 48.2513 174.053 44.1913 174.133C30.8713 174.403 17.5313 174.133 4.20127 174.303C0.961273 174.343 -0.0387265 173.443 0.00127352 170.143C0.161274 153.983 0.171274 137.823 0.00127352 121.653C-0.0387265 118.213 0.851274 117.093 4.41127 117.153C17.7413 117.363 31.0713 117.093 44.4013 117.323C48.1413 117.383 49.1913 116.373 49.1313 112.613C48.9013 99.4532 48.8113 86.2832 49.1313 73.1232C49.5913 54.4032 53.9713 36.9232 66.7313 22.4232C77.6813 9.96323 91.8713 3.42323 107.961 1.23323C126.381 -1.27677 144.851 0.573227 163.271 2.12323C165.441 2.30323 166.111 3.07323 166.101 5.15323C166.051 20.1532 166.001 35.1432 166.131 50.1432C166.161 53.1732 164.601 53.1432 162.411 53.2032C151.261 53.4832 140.101 52.5032 128.971 53.9432C115.351 55.7032 108.751 62.0132 108.211 75.5432C107.701 88.3532 108.131 101.203 107.931 114.023C107.881 117.393 109.711 117.263 112.021 117.253C128.021 117.213 144.011 117.313 160.011 117.173C163.341 117.143 164.361 118.063 163.881 121.443C161.561 137.903 159.311 154.373 157.321 170.883C156.961 173.873 155.811 174.303 153.271 174.283C139.941 174.193 126.601 174.473 113.281 174.123C108.671 174.003 107.881 175.523 107.891 179.733C108.041 224.723 107.931 269.713 108.071 314.693C108.081 318.873 107.371 320.403 102.711 320.303C86.5513 319.963 70.3913 320.033 54.2313 320.273C50.2013 320.333 48.8713 319.473 48.9213 315.163C49.1513 292.673 49.0313 270.173 49.0313 247.683V247.673Z" fill="white"/>
</svg>
