<svg width="321" height="321" viewBox="0 0 321 321" fill="none" xmlns="http://www.w3.org/2000/svg">
<path d="M160.631 320.203C137.301 320.203 113.971 320.253 90.6311 320.193C46.2211 320.083 10.5111 290.633 2.18109 247.113C1.15109 241.743 0.871094 236.223 0.871094 230.693C0.921094 183.693 0.841087 136.693 0.911087 89.7029C1.00109 39.3329 39.7711 0.38288 90.1911 0.20288C137.351 0.03288 184.521 0.04288 231.681 0.20288C275.701 0.35288 311.371 30.0929 319.641 73.3429C320.671 78.7229 320.951 84.2429 320.941 89.7629C320.891 136.763 320.971 183.763 320.901 230.753C320.821 281.173 282.051 319.993 231.631 320.183C207.961 320.273 184.301 320.203 160.631 320.203ZM160.611 291.503C160.611 291.603 160.611 291.713 160.611 291.813C183.441 291.813 206.261 291.823 229.091 291.813C234.091 291.813 239.081 291.603 244.021 290.663C267.821 286.163 292.861 265.213 292.621 228.533C292.331 183.043 292.581 137.553 292.511 92.0729C292.511 86.7629 292.331 81.4029 291.101 76.1929C284.341 47.3229 261.541 28.9329 231.191 28.7429C184.371 28.4529 137.551 28.6329 90.7311 28.6829C71.8711 28.7029 55.9911 35.5729 43.5811 49.9529C33.0411 62.1629 29.2311 76.6329 29.2511 92.4729C29.3111 135.963 29.2511 179.453 29.2911 222.933C29.2911 227.423 29.4711 231.923 29.8011 236.403C31.9311 266.263 55.2811 290.173 85.1411 291.323C110.261 292.293 135.451 291.523 160.601 291.523L160.611 291.503Z" fill="white"/>
<path d="M160.591 242.753C114.741 242.203 77.7513 204.773 78.4713 159.663C79.2013 113.843 115.991 77.463 161.231 77.823C207.021 78.193 244.091 115.653 243.351 160.793C242.601 206.543 205.491 243.283 160.591 242.743V242.753ZM214.911 160.483C214.951 130.653 190.901 106.403 161.171 106.293C131.381 106.183 106.971 130.343 106.931 159.983C106.891 189.803 130.951 214.073 160.671 214.193C190.431 214.313 214.881 190.113 214.921 160.483H214.911Z" fill="white"/>
<path d="M246.651 95.2628C235.301 95.1928 226.021 85.9128 225.971 74.5928C225.921 63.1228 235.501 53.6428 247.011 53.7628C258.311 53.8728 267.691 63.2328 267.761 74.4628C267.831 85.8728 258.231 95.3328 246.641 95.2628H246.651Z" fill="white"/>
</svg>
