<svg width="945" height="192" viewBox="0 0 945 192" fill="none" xmlns="http://www.w3.org/2000/svg">
<path d="M287.517 35.1943V49.1963H257.502V61.2039H281.489V75.2059H257.502V101.215H243.492V35.2359H287.517V35.1943Z" fill="#3A519E"/>
<path d="M284.69 91.1611V101.174H270.68V91.1611H284.69Z" fill="#3A519E"/>
<path d="M344.804 87.1719V101.174H330.794V35.1943H354.782C361.974 35.1943 368.127 37.7288 373.199 42.7978C378.27 47.8667 380.806 53.9744 380.806 61.2039C380.806 68.4334 378.27 74.5411 373.199 79.61C372.201 80.6072 371.078 81.5628 369.914 82.3938L380.806 101.174H364.635L356.57 87.0888C355.987 87.1304 355.405 87.1719 354.823 87.1719H344.804ZM344.804 49.1963V73.17H354.823C358.149 73.17 360.976 72.0066 363.304 69.6383C365.632 67.3116 366.838 64.4863 366.838 61.1624C366.838 57.8384 365.674 55.0131 363.304 52.6864C360.976 50.3597 358.108 49.1547 354.823 49.1547H344.804V49.1963Z" fill="#3A519E"/>
<path d="M438.8 35.1943V49.1963H408.785V61.2039H432.772V75.2059H408.785V87.2135H438.8V101.215H394.775V35.2359H438.8V35.1943Z" fill="#3A519E"/>
<path d="M484.738 76.3692V101.174H470.728V76.3692L446.741 35.1943H462.996L477.796 60.6222L492.595 35.1943H508.767L484.78 76.3692H484.738Z" fill="#3A519E"/>
<path d="M560.692 35.1943V49.1963H530.676V61.2039H554.663V75.2059H530.676V87.2135H560.692V101.215H516.666V35.2359H560.692V35.1943Z" fill="#3A519E"/>
<path d="M582.143 80.9398C586.425 86.4243 591.248 89.1665 596.694 89.1665C599.853 89.1665 602.431 88.5848 604.468 87.3799C606.505 86.175 607.503 84.3884 607.503 81.9785C607.336 79.8595 606.131 78.2391 603.886 77.1589L588.462 73.4195C583.723 71.9237 579.898 69.5139 577.03 66.19C574.161 62.8661 572.706 59.2098 572.706 55.1795C572.706 48.5317 575.034 43.1719 579.69 39.1832C584.347 35.1945 589.793 33.2002 595.987 33.2002C605.465 33.2002 613.323 36.6487 619.517 43.5874L608.625 52.3127C605.465 48.9057 601.516 47.2022 596.694 47.2022C593.493 47.2022 591.04 47.8669 589.294 49.1965C587.548 50.5261 586.675 52.1465 586.675 54.0162C586.675 56.6753 588.504 58.7943 592.121 60.3316L607.627 64.0294C616.856 67.478 621.471 73.5026 621.471 82.0201C621.471 87.6707 619.351 92.615 615.069 96.853C610.787 101.091 604.676 103.21 596.652 103.21C585.76 103.21 577.071 98.3903 570.586 88.8341L582.102 80.9814L582.143 80.9398Z" fill="#3A519E"/>
<path d="M696.801 76.3692V101.174H682.791V76.3692L658.803 35.1943H675.058L689.858 60.6222L704.658 35.1943H720.83L696.842 76.3692H696.801Z" fill="#3A519E"/>
<path d="M816.53 92.9474C809.712 99.7614 801.481 103.168 791.794 103.168C782.108 103.168 773.793 99.7614 766.975 92.9474C760.158 86.1334 756.749 77.8652 756.749 68.1428C756.749 58.4203 760.158 50.2352 766.975 43.4212C773.793 36.6072 782.066 33.2002 791.794 33.2002C801.522 33.2002 809.671 36.6072 816.53 43.4212L806.594 53.3514C802.479 49.238 797.573 47.2022 791.794 47.2022C786.016 47.2022 781.027 49.238 776.911 53.3514C772.796 57.4647 770.759 62.409 770.759 68.1428C770.759 73.8765 772.796 78.9039 776.911 83.0172C781.027 87.1306 785.974 89.1665 791.794 89.1665C797.615 89.1665 802.479 87.1306 806.594 83.0172L816.53 92.9474Z" fill="#3A519E"/>
<path d="M840.767 35.1943V101.174H826.757V35.1943H840.767Z" fill="#3A519E"/>
<path d="M902.794 93.1555H868.87L865.129 101.133H849.539L880.594 35.1533H890.987L922.042 101.133H906.618L902.835 93.1555H902.794ZM896.225 79.1951L885.832 57.1327L875.439 79.1951H896.225Z" fill="#3A519E"/>
<path d="M369.124 154.731C367.046 154.731 365.092 154.357 363.304 153.651C361.517 152.945 359.978 151.947 358.648 150.659C357.318 149.371 356.32 147.876 355.572 146.13C354.865 144.385 354.491 142.474 354.491 140.438C354.491 138.402 354.865 136.45 355.572 134.746C356.278 133.001 357.318 131.505 358.648 130.217C359.978 128.929 361.517 127.932 363.304 127.226C365.092 126.519 367.004 126.146 369.124 126.146C371.245 126.146 372.991 126.478 374.695 127.101C376.441 127.766 377.896 128.722 379.143 130.051L377.855 131.381C376.649 130.217 375.319 129.345 373.822 128.805C372.325 128.264 370.787 128.015 369.166 128.015C367.378 128.015 365.674 128.348 364.136 128.929C362.597 129.511 361.226 130.425 360.103 131.547C358.981 132.669 358.066 133.998 357.442 135.494C356.819 136.99 356.486 138.652 356.486 140.397C356.486 142.142 356.819 143.804 357.442 145.3C358.066 146.795 358.981 148.125 360.103 149.247C361.226 150.368 362.597 151.241 364.136 151.864C365.674 152.487 367.337 152.778 369.166 152.778C370.787 152.778 372.367 152.529 373.822 151.989C375.277 151.449 376.607 150.618 377.855 149.371L379.143 150.701C377.896 152.03 376.441 152.986 374.695 153.651C372.949 154.316 371.078 154.648 369.124 154.648V154.731Z" fill="#3A519E"/>
<path d="M392.696 154.689C390.701 154.689 388.871 154.232 387.333 153.318C385.795 152.404 384.506 151.157 383.592 149.537C382.677 147.917 382.22 146.088 382.22 144.011C382.22 141.934 382.677 140.064 383.592 138.485C384.506 136.906 385.753 135.618 387.333 134.704C388.913 133.79 390.701 133.333 392.696 133.333C394.692 133.333 396.521 133.79 398.101 134.704C399.68 135.618 400.927 136.865 401.842 138.485C402.757 140.105 403.214 141.934 403.214 144.011C403.214 146.088 402.757 147.917 401.842 149.537C400.927 151.157 399.68 152.404 398.101 153.318C396.521 154.232 394.733 154.689 392.696 154.689ZM392.696 152.903C394.317 152.903 395.772 152.529 397.061 151.781C398.35 151.033 399.348 149.994 400.096 148.665C400.844 147.335 401.177 145.756 401.177 144.011C401.177 142.266 400.803 140.687 400.096 139.358C399.389 138.028 398.35 136.989 397.061 136.241C395.772 135.494 394.317 135.12 392.696 135.12C391.075 135.12 389.62 135.494 388.372 136.241C387.125 136.989 386.086 138.028 385.338 139.358C384.589 140.687 384.215 142.224 384.215 144.011C384.215 145.798 384.589 147.293 385.338 148.665C386.086 150.036 387.084 151.033 388.372 151.781C389.661 152.529 391.075 152.903 392.696 152.903Z" fill="#3A519E"/>
<path d="M409.45 154.523V133.499H411.404V139.274L411.196 138.61C411.778 136.906 412.776 135.618 414.189 134.704C415.602 133.79 417.349 133.333 419.427 133.333V135.286C419.427 135.286 419.261 135.286 419.178 135.286C419.095 135.286 419.011 135.286 418.928 135.286C416.6 135.286 414.771 136.034 413.441 137.488C412.11 138.942 411.445 140.978 411.445 143.596V154.564H409.45V154.523Z" fill="#3A519E"/>
<path d="M424.998 154.523V133.499H426.952V139.274L426.744 138.61C427.326 136.906 428.324 135.618 429.737 134.704C431.151 133.79 432.897 133.333 434.975 133.333V135.286C434.975 135.286 434.809 135.286 434.726 135.286C434.643 135.286 434.56 135.286 434.477 135.286C432.149 135.286 430.319 136.034 428.989 137.488C427.659 138.942 426.994 140.978 426.994 143.596V154.564H424.998V154.523Z" fill="#3A519E"/>
<path d="M448.861 154.689C446.74 154.689 444.87 154.232 443.248 153.318C441.627 152.404 440.338 151.157 439.424 149.537C438.509 147.917 438.052 146.088 438.052 144.011C438.052 141.934 438.467 140.064 439.341 138.485C440.214 136.906 441.419 135.618 442.957 134.704C444.496 133.79 446.2 133.333 448.112 133.333C450.025 133.333 451.729 133.79 453.267 134.663C454.806 135.535 455.97 136.782 456.843 138.402C457.716 140.022 458.173 141.851 458.173 143.928C458.173 144.011 458.173 144.094 458.173 144.177C458.173 144.26 458.173 144.385 458.173 144.468H439.59V142.889H457.092L456.302 143.637C456.302 142.017 455.97 140.521 455.263 139.233C454.556 137.945 453.6 136.906 452.394 136.158C451.189 135.41 449.775 135.037 448.195 135.037C446.616 135.037 445.244 135.41 444.038 136.158C442.833 136.906 441.835 137.903 441.17 139.233C440.463 140.521 440.13 142.017 440.13 143.679V144.053C440.13 145.756 440.505 147.293 441.294 148.623C442.043 149.953 443.124 150.991 444.454 151.739C445.784 152.487 447.322 152.861 449.069 152.861C450.399 152.861 451.688 152.612 452.852 152.155C454.016 151.656 455.013 150.95 455.803 149.953L456.967 151.282C456.053 152.404 454.889 153.276 453.517 153.858C452.145 154.44 450.648 154.731 449.027 154.731L448.861 154.689Z" fill="#3A519E"/>
<path d="M472.516 154.689C470.562 154.689 468.774 154.232 467.194 153.318C465.615 152.404 464.368 151.158 463.453 149.537C462.538 147.917 462.081 146.089 462.081 143.97C462.081 141.851 462.538 139.981 463.453 138.402C464.368 136.823 465.615 135.535 467.194 134.663C468.774 133.749 470.52 133.333 472.516 133.333C474.387 133.333 476.049 133.749 477.546 134.621C479.043 135.494 480.207 136.699 481.08 138.277C481.953 139.856 482.41 141.768 482.41 144.011C482.41 146.255 481.994 148.083 481.121 149.703C480.248 151.324 479.084 152.57 477.588 153.401C476.091 154.274 474.428 154.689 472.516 154.689ZM472.641 152.903C474.262 152.903 475.717 152.529 476.964 151.781C478.253 151.033 479.251 149.994 479.999 148.665C480.747 147.335 481.121 145.756 481.121 144.011C481.121 142.266 480.747 140.687 479.999 139.358C479.251 138.028 478.253 136.989 476.964 136.242C475.675 135.494 474.262 135.12 472.641 135.12C471.019 135.12 469.564 135.494 468.317 136.242C467.028 136.989 466.03 138.028 465.282 139.358C464.534 140.687 464.16 142.225 464.16 144.011C464.16 145.798 464.534 147.294 465.282 148.665C466.03 149.994 467.028 151.033 468.317 151.781C469.606 152.529 471.019 152.903 472.641 152.903ZM481.121 154.523V147.626L481.496 143.97L481.08 140.313V124.649H483.075V154.565H481.121V154.523Z" fill="#3A519E"/>
<path d="M499.87 154.689C497.833 154.689 496.046 154.232 494.466 153.318C492.886 152.404 491.639 151.157 490.724 149.537C489.81 147.917 489.353 146.088 489.353 144.011C489.353 141.934 489.81 140.064 490.724 138.485C491.639 136.906 492.886 135.618 494.466 134.704C496.046 133.79 497.833 133.333 499.87 133.333C501.907 133.333 503.695 133.79 505.275 134.704C506.855 135.618 508.102 136.865 509.016 138.485C509.931 140.064 510.388 141.934 510.388 144.011C510.388 146.088 509.931 147.917 509.016 149.537C508.102 151.157 506.855 152.404 505.275 153.318C503.695 154.232 501.866 154.689 499.87 154.689ZM499.87 152.903C501.492 152.903 502.947 152.529 504.236 151.781C505.524 151.033 506.522 149.994 507.27 148.665C507.977 147.335 508.351 145.756 508.351 144.011C508.351 142.266 507.977 140.687 507.27 139.358C506.564 138.028 505.524 136.989 504.236 136.241C502.947 135.494 501.492 135.12 499.87 135.12C498.249 135.12 496.794 135.494 495.547 136.241C494.258 136.989 493.26 138.028 492.512 139.358C491.764 140.687 491.39 142.224 491.39 144.011C491.39 145.798 491.764 147.293 492.512 148.665C493.26 149.994 494.258 151.033 495.547 151.781C496.836 152.529 498.249 152.903 499.87 152.903Z" fill="#3A519E"/>
<path d="M516.625 154.523V133.499H518.578V139.274L518.371 138.61C518.953 136.906 519.95 135.618 521.364 134.704C522.777 133.79 524.523 133.333 526.602 133.333V135.286C526.602 135.286 526.436 135.286 526.353 135.286C526.269 135.286 526.186 135.286 526.103 135.286C523.775 135.286 521.946 136.034 520.616 137.488C519.285 138.942 518.662 140.978 518.662 143.596V154.564H516.625V154.523Z" fill="#3A519E"/>
<path d="M540.487 154.689C538.367 154.689 536.496 154.232 534.875 153.318C533.253 152.404 531.965 151.157 531.05 149.537C530.135 147.917 529.678 146.088 529.678 144.011C529.678 141.934 530.094 140.064 531.009 138.485C531.882 136.906 533.087 135.618 534.625 134.704C536.164 133.79 537.868 133.333 539.78 133.333C541.693 133.333 543.397 133.79 544.935 134.663C546.474 135.535 547.638 136.782 548.511 138.402C549.384 140.022 549.841 141.851 549.841 143.928C549.841 144.011 549.841 144.094 549.841 144.177C549.841 144.26 549.841 144.385 549.841 144.468H531.258V142.889H548.76L547.97 143.637C547.97 142.017 547.638 140.521 546.931 139.233C546.224 137.945 545.268 136.906 544.062 136.158C542.857 135.41 541.443 135.037 539.864 135.037C538.284 135.037 536.912 135.41 535.706 136.158C534.501 136.906 533.503 137.903 532.838 139.233C532.173 140.563 531.798 142.017 531.798 143.679V144.053C531.798 145.756 532.173 147.293 532.962 148.623C533.711 149.953 534.792 150.991 536.122 151.739C537.452 152.487 538.991 152.861 540.737 152.861C542.067 152.861 543.356 152.612 544.52 152.155C545.684 151.698 546.681 150.95 547.471 149.953L548.635 151.282C547.721 152.404 546.557 153.276 545.185 153.858C543.813 154.44 542.316 154.731 540.695 154.731L540.487 154.689Z" fill="#3A519E"/>
<path d="M561.357 154.689C559.611 154.689 557.989 154.44 556.451 153.941C554.913 153.443 553.749 152.778 552.917 151.988L553.832 150.368C554.622 151.074 555.703 151.656 557.075 152.155C558.405 152.653 559.86 152.903 561.44 152.903C563.643 152.903 565.223 152.529 566.179 151.822C567.135 151.116 567.634 150.16 567.634 148.955C567.634 148.083 567.385 147.418 566.886 146.919C566.387 146.421 565.722 146.047 564.89 145.756C564.059 145.507 563.144 145.258 562.147 145.091C561.149 144.925 560.151 144.717 559.153 144.51C558.156 144.302 557.241 143.97 556.41 143.596C555.578 143.18 554.913 142.64 554.414 141.934C553.915 141.227 553.666 140.272 553.666 139.108C553.666 138.028 553.957 137.072 554.539 136.2C555.121 135.327 556.035 134.663 557.199 134.122C558.364 133.582 559.86 133.333 561.648 133.333C562.978 133.333 564.267 133.499 565.639 133.915C567.011 134.33 568.05 134.787 568.881 135.41L567.967 137.031C567.094 136.366 566.096 135.867 564.974 135.577C563.893 135.286 562.77 135.12 561.648 135.12C559.611 135.12 558.114 135.494 557.158 136.241C556.202 136.989 555.744 137.945 555.744 139.067C555.744 139.939 555.994 140.646 556.493 141.186C556.992 141.726 557.657 142.1 558.488 142.391C559.32 142.681 560.234 142.889 561.232 143.097C562.23 143.263 563.228 143.471 564.225 143.679C565.223 143.886 566.138 144.177 566.969 144.593C567.801 145.008 568.466 145.507 568.965 146.213C569.463 146.919 569.713 147.834 569.713 148.955C569.713 150.077 569.38 151.116 568.757 151.988C568.133 152.861 567.177 153.526 565.971 154.024C564.724 154.523 563.227 154.731 561.398 154.731L561.357 154.689Z" fill="#3A519E"/>
<path d="M593.783 154.689C591.829 154.689 590.042 154.232 588.462 153.318C586.882 152.404 585.635 151.158 584.72 149.537C583.806 147.917 583.349 146.089 583.349 143.97C583.349 141.851 583.806 139.981 584.72 138.402C585.635 136.823 586.882 135.535 588.462 134.663C590.042 133.749 591.788 133.333 593.783 133.333C595.654 133.333 597.317 133.749 598.814 134.621C600.31 135.494 601.474 136.699 602.347 138.277C603.22 139.856 603.678 141.768 603.678 144.011C603.678 146.255 603.262 148.083 602.389 149.703C601.516 151.324 600.352 152.57 598.855 153.401C597.359 154.274 595.696 154.689 593.783 154.689ZM593.908 152.903C595.529 152.903 596.984 152.529 598.232 151.781C599.52 151.033 600.518 149.994 601.266 148.665C602.015 147.335 602.389 145.756 602.389 144.011C602.389 142.266 602.015 140.687 601.266 139.358C600.518 138.028 599.52 136.989 598.232 136.242C596.943 135.494 595.529 135.12 593.908 135.12C592.287 135.12 590.832 135.494 589.585 136.242C588.296 136.989 587.298 138.028 586.55 139.358C585.801 140.687 585.427 142.225 585.427 144.011C585.427 145.798 585.801 147.294 586.55 148.665C587.298 149.994 588.296 151.033 589.585 151.781C590.873 152.529 592.287 152.903 593.908 152.903ZM602.431 154.523V147.626L602.805 143.97L602.389 140.313V124.649H604.384V154.565H602.431V154.523Z" fill="#3A519E"/>
<path d="M621.429 154.689C619.309 154.689 617.438 154.232 615.817 153.318C614.195 152.404 612.907 151.157 611.992 149.537C611.077 147.917 610.62 146.088 610.62 144.011C610.62 141.934 611.036 140.064 611.95 138.485C612.823 136.906 614.029 135.618 615.567 134.704C617.105 133.79 618.81 133.333 620.722 133.333C622.635 133.333 624.339 133.79 625.877 134.663C627.415 135.535 628.58 136.782 629.453 138.402C630.326 140.022 630.783 141.851 630.783 143.928C630.783 144.011 630.783 144.094 630.783 144.177C630.783 144.26 630.783 144.385 630.783 144.468H612.2V142.889H629.702L628.912 143.637C628.912 142.017 628.58 140.521 627.873 139.233C627.166 137.945 626.21 136.906 625.004 136.158C623.799 135.41 622.385 135.037 620.805 135.037C619.226 135.037 617.854 135.41 616.648 136.158C615.443 136.906 614.445 137.903 613.78 139.233C613.114 140.563 612.74 142.017 612.74 143.679V144.053C612.74 145.756 613.114 147.293 613.904 148.623C614.653 149.953 615.734 150.991 617.064 151.739C618.394 152.487 619.932 152.861 621.678 152.861C623.009 152.861 624.298 152.612 625.462 152.155C626.626 151.698 627.623 150.95 628.413 149.953L629.577 151.282C628.663 152.404 627.499 153.276 626.127 153.858C624.755 154.44 623.258 154.731 621.637 154.731L621.429 154.689Z" fill="#3A519E"/>
<path d="M655.394 154.731C653.315 154.731 651.32 154.357 649.449 153.65C647.578 152.944 646.123 152.03 645.125 150.908L646.04 149.371C646.996 150.368 648.327 151.199 650.031 151.905C651.694 152.612 653.482 152.944 655.394 152.944C657.306 152.944 658.803 152.695 660.009 152.196C661.214 151.698 662.087 151.033 662.669 150.202C663.251 149.371 663.542 148.457 663.542 147.418C663.542 146.213 663.21 145.258 662.586 144.51C661.921 143.803 661.089 143.222 660.05 142.765C659.011 142.349 657.847 141.975 656.641 141.684C655.394 141.393 654.147 141.061 652.9 140.729C651.652 140.396 650.488 139.939 649.449 139.399C648.41 138.859 647.537 138.111 646.913 137.197C646.29 136.283 645.957 135.078 645.957 133.582C645.957 132.253 646.29 131.006 646.996 129.884C647.703 128.763 648.784 127.849 650.281 127.142C651.777 126.436 653.648 126.104 655.976 126.104C657.556 126.104 659.094 126.353 660.591 126.81C662.129 127.267 663.418 127.89 664.498 128.68L663.75 130.341C662.586 129.552 661.297 128.929 659.925 128.555C658.554 128.181 657.265 127.973 655.976 127.973C654.188 127.973 652.692 128.223 651.486 128.721C650.322 129.22 649.449 129.926 648.867 130.757C648.285 131.588 648.036 132.544 648.036 133.582C648.036 134.787 648.368 135.743 648.992 136.491C649.615 137.197 650.447 137.779 651.528 138.236C652.567 138.651 653.731 139.025 654.978 139.316C656.225 139.607 657.473 139.939 658.72 140.272C659.967 140.604 661.089 141.061 662.129 141.601C663.168 142.141 664.041 142.848 664.665 143.762C665.288 144.676 665.621 145.839 665.621 147.293C665.621 148.623 665.247 149.828 664.54 150.991C663.833 152.113 662.711 153.027 661.214 153.733C659.718 154.44 657.805 154.772 655.477 154.772L655.394 154.731Z" fill="#3A519E"/>
<path d="M680.463 154.689C678.342 154.689 676.472 154.232 674.85 153.318C673.229 152.404 671.94 151.157 671.026 149.537C670.111 147.917 669.654 146.088 669.654 144.011C669.654 141.934 670.07 140.064 670.984 138.485C671.857 136.906 673.063 135.618 674.601 134.704C676.139 133.79 677.844 133.333 679.756 133.333C681.668 133.333 683.373 133.79 684.911 134.663C686.449 135.535 687.613 136.782 688.486 138.402C689.359 140.022 689.817 141.851 689.817 143.928C689.817 144.011 689.817 144.094 689.817 144.177C689.817 144.26 689.817 144.385 689.817 144.468H671.234V142.889H688.736L687.946 143.637C687.946 142.017 687.613 140.521 686.906 139.233C686.2 137.945 685.244 136.906 684.038 136.158C682.832 135.41 681.419 135.037 679.839 135.037C678.259 135.037 676.887 135.41 675.682 136.158C674.476 136.906 673.478 137.903 672.813 139.233C672.148 140.563 671.774 142.017 671.774 143.679V144.053C671.774 145.756 672.148 147.293 672.938 148.623C673.686 149.953 674.767 150.991 676.098 151.739C677.428 152.487 678.966 152.861 680.712 152.861C682.042 152.861 683.331 152.612 684.495 152.155C685.659 151.698 686.657 150.95 687.447 149.953L688.611 151.282C687.696 152.404 686.532 153.276 685.16 153.858C683.789 154.44 682.292 154.731 680.671 154.731L680.463 154.689Z" fill="#3A519E"/>
<path d="M704.159 153.775C702.163 153.775 700.376 153.36 698.796 152.445C697.216 151.573 695.969 150.368 695.055 148.831C694.14 147.293 693.683 145.507 693.683 143.512C693.683 141.518 694.14 139.732 695.055 138.194C695.969 136.657 697.216 135.452 698.796 134.621C700.376 133.748 702.163 133.333 704.159 133.333C706.154 133.333 707.776 133.749 709.314 134.579C710.852 135.41 712.058 136.574 712.931 138.07C713.804 139.607 714.261 141.393 714.261 143.512C714.261 145.631 713.804 147.418 712.931 148.955C712.058 150.493 710.852 151.656 709.314 152.487C707.776 153.318 706.071 153.733 704.159 153.733V153.775ZM704.741 162.5C702.829 162.5 700.999 162.209 699.295 161.628C697.59 161.046 696.177 160.215 695.096 159.176L696.177 157.639C697.216 158.595 698.463 159.343 699.96 159.883C701.415 160.423 702.995 160.672 704.699 160.672C707.526 160.672 709.605 160.007 710.935 158.678C712.266 157.348 712.931 155.312 712.931 152.487V146.629L713.347 143.471L713.014 140.313V133.416H714.968V152.196C714.968 155.728 714.095 158.304 712.39 159.966C710.686 161.628 708.15 162.459 704.741 162.459V162.5ZM704.325 151.947C706.03 151.947 707.526 151.614 708.815 150.867C710.104 150.16 711.102 149.163 711.85 147.875C712.598 146.587 712.972 145.133 712.972 143.512C712.972 141.892 712.598 140.396 711.85 139.108C711.102 137.862 710.104 136.865 708.815 136.158C707.526 135.452 706.03 135.12 704.325 135.12C702.621 135.12 701.207 135.452 699.919 136.158C698.63 136.865 697.59 137.82 696.842 139.108C696.094 140.355 695.72 141.851 695.72 143.512C695.72 145.174 696.094 146.629 696.842 147.875C697.59 149.163 698.588 150.16 699.919 150.867C701.207 151.573 702.704 151.947 704.325 151.947Z" fill="#3A519E"/>
<path d="M732.013 154.689C730.225 154.689 728.645 154.357 727.356 153.692C726.026 153.028 725.028 152.03 724.322 150.701C723.615 149.371 723.241 147.709 723.241 145.756V133.458H725.278V145.59C725.278 147.959 725.901 149.745 727.107 150.992C728.313 152.238 730.017 152.861 732.22 152.861C733.8 152.861 735.172 152.529 736.336 151.864C737.5 151.199 738.373 150.244 738.997 149.039C739.62 147.834 739.911 146.38 739.911 144.718V133.5H741.948V154.523H739.995V148.665L740.286 149.33C739.662 150.95 738.623 152.28 737.209 153.235C735.754 154.191 734.05 154.648 732.054 154.648L732.013 154.689Z" fill="#3A519E"/>
<path d="M750.471 154.523V133.499H752.425V139.274L752.217 138.61C752.799 136.906 753.797 135.618 755.21 134.704C756.624 133.79 758.37 133.333 760.449 133.333V135.286C760.449 135.286 760.282 135.286 760.199 135.286C760.116 135.286 760.033 135.286 759.95 135.286C757.622 135.286 755.792 136.034 754.462 137.488C753.132 138.942 752.508 140.978 752.508 143.596V154.564H750.471V154.523Z" fill="#3A519E"/>
<path d="M774.001 154.689C771.964 154.689 770.177 154.232 768.597 153.318C767.017 152.404 765.77 151.157 764.855 149.537C763.941 147.917 763.483 146.088 763.483 144.011C763.483 141.934 763.941 140.064 764.855 138.485C765.77 136.906 767.017 135.618 768.597 134.704C770.177 133.79 771.964 133.333 774.001 133.333C776.038 133.333 777.826 133.79 779.406 134.704C780.986 135.618 782.233 136.865 783.147 138.485C784.062 140.064 784.519 141.934 784.519 144.011C784.519 146.088 784.062 147.917 783.147 149.537C782.233 151.157 780.986 152.404 779.406 153.318C777.826 154.232 775.997 154.689 774.001 154.689ZM774.001 152.903C775.623 152.903 777.078 152.529 778.366 151.781C779.655 151.033 780.653 149.994 781.401 148.665C782.108 147.335 782.482 145.756 782.482 144.011C782.482 142.266 782.108 140.687 781.401 139.358C780.695 138.028 779.655 136.989 778.366 136.241C777.078 135.494 775.623 135.12 774.001 135.12C772.38 135.12 770.925 135.494 769.678 136.241C768.389 136.989 767.391 138.028 766.643 139.358C765.895 140.687 765.52 142.224 765.52 144.011C765.52 145.798 765.895 147.293 766.643 148.665C767.391 149.994 768.389 151.033 769.678 151.781C770.967 152.529 772.38 152.903 774.001 152.903Z" fill="#3A519E"/>
<path d="M796.118 154.689C794.372 154.689 792.751 154.44 791.212 153.941C789.674 153.443 788.51 152.778 787.679 151.988L788.593 150.368C789.383 151.074 790.464 151.656 791.836 152.155C793.166 152.653 794.621 152.903 796.201 152.903C798.404 152.903 799.984 152.529 800.94 151.822C801.897 151.116 802.395 150.16 802.395 148.955C802.395 148.083 802.146 147.418 801.647 146.919C801.148 146.421 800.483 146.047 799.652 145.756C798.82 145.507 797.906 145.258 796.908 145.091C795.91 144.925 794.912 144.717 793.915 144.51C792.917 144.302 792.002 143.97 791.171 143.596C790.339 143.18 789.674 142.64 789.175 141.934C788.676 141.227 788.427 140.272 788.427 139.108C788.427 138.028 788.718 137.072 789.3 136.2C789.882 135.327 790.797 134.663 791.961 134.122C793.125 133.582 794.621 133.333 796.409 133.333C797.739 133.333 799.028 133.499 800.4 133.915C801.772 134.33 802.811 134.787 803.643 135.41L802.728 137.031C801.855 136.366 800.857 135.867 799.735 135.577C798.654 135.286 797.531 135.12 796.409 135.12C794.372 135.12 792.875 135.494 791.919 136.241C790.963 136.989 790.506 137.945 790.506 139.067C790.506 139.939 790.755 140.646 791.254 141.186C791.753 141.726 792.418 142.1 793.249 142.391C794.081 142.681 794.996 142.889 795.993 143.097C796.991 143.263 797.989 143.471 798.986 143.679C799.984 143.886 800.899 144.177 801.73 144.593C802.562 145.008 803.227 145.507 803.726 146.213C804.225 146.919 804.474 147.834 804.474 148.955C804.474 150.077 804.142 151.116 803.518 151.988C802.894 152.861 801.938 153.526 800.733 154.024C799.485 154.523 797.989 154.731 796.16 154.731L796.118 154.689Z" fill="#3A519E"/>
<path d="M30.3067 158.304C37.9977 165.949 54.5436 179.992 78.6142 183.482C115.032 188.759 153.487 167.735 175.894 130.217L169.035 124.982L197.221 99.9277L193.189 143.429L186.246 138.111C159.972 176.835 117.609 196.737 79.4041 188.51C54.2526 183.109 37.8314 166.946 30.2651 158.262L30.3067 158.304Z" fill="#3A519E"/>
<path d="M86.5129 174.425C134.155 174.425 172.776 135.825 172.776 88.2109C172.776 40.5963 134.155 1.99707 86.5129 1.99707C38.871 1.99707 0.249512 40.5963 0.249512 88.2109C0.249512 135.825 38.871 174.425 86.5129 174.425Z" fill="#82BC49"/>
<path d="M86.6792 175.422C38.8705 175.422 0 136.283 0 88.211C0 40.139 38.8705 1 86.6792 1C134.488 1 173.358 40.139 173.358 88.211C173.358 136.283 134.488 175.422 86.6792 175.422ZM86.6792 2.03872C39.4525 2.03872 1.03932 40.6791 1.03932 88.211C1.03932 135.743 39.4525 174.383 86.6376 174.383C133.823 174.383 172.236 135.743 172.236 88.211C172.236 40.6791 133.864 2.03872 86.6792 2.03872Z" fill="white"/>
<path d="M15.0076 135.618L13.9683 135.41C19.539 107.199 27.2715 82.6435 36.9164 62.3676C44.6489 46.122 53.6286 32.5771 63.6061 22.1068C80.6509 4.2408 94.4946 1.58168 95.0767 1.45703L95.2429 2.49575C95.2429 2.49575 81.0666 5.23797 64.2713 22.8962C48.7231 39.2249 27.5625 72.0485 14.966 135.618H15.0076Z" fill="white"/>
<path d="M83.1872 175.298L82.4805 174.508C97.2804 161.213 116.903 137.156 126.506 97.9753C137.232 54.0167 125.051 21.11 120.478 8.72843L121.476 8.35449C126.09 20.8191 138.354 53.9751 127.545 98.2246C117.9 137.654 98.1118 161.919 83.2288 175.298H83.1872Z" fill="white"/>
<path d="M126.714 32.2034C103.474 32.2034 88.342 26.8436 79.1544 21.6084C66.059 14.1712 61.8601 5.65369 61.6938 5.32129L62.65 4.86426C62.65 4.86426 66.932 13.5064 79.778 20.7359C91.6678 27.4668 113.577 34.4055 150.41 29.4612L150.535 30.4999C141.763 31.6633 133.864 32.2034 126.714 32.2034Z" fill="white"/>
<path d="M111.664 55.7199C108.505 55.7199 105.387 55.5952 102.394 55.3044C88.2588 54.0579 75.6207 49.9446 64.8534 43.0891C46.5198 31.3723 39.9513 15.4591 39.8682 15.2929L40.8243 14.9189C40.8243 14.9189 47.3928 30.7491 65.4354 42.2581C82.1061 52.8946 112.371 62.1184 161.718 45.5404L162.05 46.5376C143.842 52.6453 126.921 55.7199 111.623 55.7199H111.664Z" fill="white"/>
<path d="M110.376 82.1451C108.962 82.1451 107.59 82.1451 106.177 82.062C89.3399 81.4803 72.8771 77.4916 57.2458 70.1375C30.6392 57.6313 15.4236 39.5991 15.2573 39.3913L16.0472 38.7266C16.0472 38.7266 31.2628 56.8003 57.7031 69.2234C82.0647 80.6493 121.351 89.5408 170.116 67.1875L170.573 68.1431C150.327 77.4501 130.081 82.1451 110.376 82.1451Z" fill="white"/>
<path d="M93.1644 111.188C93.1644 111.188 92.7487 111.188 92.5408 111.188C73.3342 111.105 56.4973 107.365 42.4041 100.011C12.8875 84.5549 5.44594 58.2545 5.36279 57.9637L6.36054 57.6729C6.44368 57.9221 13.8021 83.8486 42.9445 99.0555C74.2072 115.343 117.775 113.722 172.36 94.2358L172.735 95.233C143.093 105.828 116.362 111.188 93.1644 111.188Z" fill="white"/>
<path d="M102.768 137.364C99.816 137.364 96.9059 137.28 93.9958 137.073C75.7869 135.909 58.368 131.048 42.2378 122.697C14.7166 108.529 0.249299 88.7099 0.0830078 88.5021L0.914462 87.8789C0.914462 87.8789 15.4233 107.698 42.6951 121.824C67.8466 134.829 109.502 145.673 164.919 123.403L165.293 124.359C143.8 133.001 122.806 137.322 102.685 137.322L102.768 137.364Z" fill="white"/>
<path d="M91.751 162.168C76.3691 162.168 61.2782 158.844 46.894 152.362C21.0358 140.604 7.15046 123.07 7.10889 122.946L7.60776 122.821L8.02349 122.53C8.02349 122.53 21.9088 139.815 47.0603 151.324C69.5511 161.586 105.719 168.899 150.493 145.59L150.992 146.504C131.12 156.85 111.249 162.126 91.9588 162.168C91.8757 162.168 91.751 162.168 91.6678 162.168H91.751Z" fill="white"/>
<path d="M15.3403 132.003V37.9365H83.2702V59.2926H40.8244V76.203H74.3736V96.5619H40.8244V132.003H15.3403Z" fill="white"/>
<path d="M81.5658 57.5887H39.12V77.9061H72.6692V94.858H39.12V130.299H17.0449V39.6396H81.5658V57.5887Z" fill="#3A519E"/>
<path d="M135.776 132.003L121.85 96.0633H109.544V132.003H84.7251V37.9365H126.298C133.822 37.9365 140.017 38.8506 144.631 40.5956C149.412 42.4238 153.403 45.7893 156.521 50.6505C159.598 55.4701 161.177 60.8715 161.177 66.7714C161.177 77.8234 156.064 85.967 145.92 91.0359L163.048 132.003H135.818H135.776ZM120.81 77.2002C124.884 77.2002 127.836 76.9093 129.582 76.3692C131.162 75.8706 132.575 74.7488 133.864 73.0037C135.153 71.2171 135.776 69.2643 135.776 66.9376C135.776 64.7771 135.153 62.9074 133.864 61.2039C132.617 59.5419 131.245 58.5032 129.873 58.1293C128.751 57.8384 126.215 57.506 120.353 57.506H109.502V77.1586H120.81V77.2002Z" fill="white"/>
<path d="M107.798 94.3595V130.299H86.3882V39.6396H126.256C133.615 39.6396 139.518 40.4706 143.966 42.2157C148.415 43.9192 152.115 47.0353 155.025 51.6057C157.935 56.1761 159.39 61.245 159.39 66.8126C159.39 77.6984 154.152 85.5096 143.634 90.2461L160.388 130.341H136.899L122.972 94.401H107.757L107.798 94.3595ZM107.798 55.8021V78.9033H120.81C125.051 78.9033 128.169 78.6125 130.081 77.9892C131.993 77.4075 133.74 76.078 135.236 74.0005C136.733 71.9231 137.481 69.5964 137.481 66.9372C137.481 64.2781 136.733 62.1591 135.236 60.1648C133.74 58.1704 132.077 56.9655 130.331 56.4669C128.543 56.0099 125.217 55.7606 120.353 55.7606H107.798V55.8021Z" fill="#3A519E"/>
</svg>
