<svg width="70" height="61" viewBox="0 0 70 61" fill="none" xmlns="http://www.w3.org/2000/svg">
<g filter="url(#filter0_d_430_594)">
<path d="M34.7377 35.5677C36.2692 35.5677 37.738 35.0442 38.8209 34.1125C39.9038 33.1807 40.5122 31.917 40.5122 30.5993C40.5122 29.2816 39.9038 28.0178 38.8209 27.0861C37.738 26.1543 36.2692 25.6309 34.7377 25.6309C33.2062 25.6309 31.7374 26.1543 30.6545 27.0861C29.5715 28.0178 28.9631 29.2816 28.9631 30.5993C28.9631 31.917 29.5715 33.1807 30.6545 34.1125C31.7374 35.0442 33.2062 35.5677 34.7377 35.5677Z" stroke="#80BB4A" stroke-width="4" stroke-linecap="round" stroke-linejoin="round"/>
<path d="M60.7195 30.5993C60.7195 30.5993 52.0588 45.5034 34.7373 45.5034C17.4159 45.5034 8.75513 30.5993 8.75513 30.5993C8.75513 30.5993 17.4159 15.6953 34.7373 15.6953C52.0588 15.6953 60.7195 30.5993 60.7195 30.5993Z" stroke="#80BB4A" stroke-width="4" stroke-linecap="round" stroke-linejoin="round"/>
</g>
<defs>
<filter id="filter0_d_430_594" x="-3.90552" y="0.791016" width="77.2859" height="67.6162" filterUnits="userSpaceOnUse" color-interpolation-filters="sRGB">
<feFlood flood-opacity="0" result="BackgroundImageFix"/>
<feColorMatrix in="SourceAlpha" type="matrix" values="0 0 0 0 0 0 0 0 0 0 0 0 0 0 0 0 0 0 127 0" result="hardAlpha"/>
<feOffset dy="4"/>
<feGaussianBlur stdDeviation="2"/>
<feComposite in2="hardAlpha" operator="out"/>
<feColorMatrix type="matrix" values="0 0 0 0 0 0 0 0 0 0 0 0 0 0 0 0 0 0 0.25 0"/>
<feBlend mode="normal" in2="BackgroundImageFix" result="effect1_dropShadow_430_594"/>
<feBlend mode="normal" in="SourceGraphic" in2="effect1_dropShadow_430_594" result="shape"/>
</filter>
</defs>
</svg>
