<svg width="71" height="64" viewBox="0 0 71 64" fill="none" xmlns="http://www.w3.org/2000/svg">
<path d="M25.4643 33.1276L32.7038 39.753L45.7349 27.8272M44.0119 13.2194L42.6219 11.473C41.8158 10.46 40.7595 9.63584 39.5391 9.06758C38.3187 8.49933 36.9689 8.20312 35.5996 8.20312C34.2304 8.20312 32.8805 8.49933 31.6601 9.06758C30.4397 9.63584 29.3834 10.46 28.5773 11.473L27.1873 13.2194L24.8591 12.8829C23.5062 12.688 22.1221 12.7886 20.8197 13.1765C19.5174 13.5643 18.3337 14.2285 17.3653 15.1148C16.3969 16.0011 15.6711 17.0844 15.2473 18.2763C14.8234 19.4681 14.7135 20.7348 14.9265 21.973L15.2942 24.1037L13.3859 25.3758C12.2791 26.1135 11.3785 27.0803 10.7576 28.1971C10.1366 29.314 9.81299 30.5494 9.81299 31.8025C9.81299 33.0556 10.1366 34.291 10.7576 35.4078C11.3785 36.5247 12.2791 37.4914 13.3859 38.2292L15.2942 39.5012L14.9265 41.632C14.7135 42.8701 14.8234 44.1368 15.2473 45.3287C15.6711 46.5206 16.3969 47.6039 17.3653 48.4901C18.3337 49.3764 19.5174 50.0406 20.8197 50.4285C22.1221 50.8164 23.5062 50.917 24.8591 50.7221L27.1873 50.3855L28.5773 52.132C29.3834 53.1449 30.4397 53.9691 31.6601 54.5374C32.8805 55.1056 34.2304 55.4018 35.5996 55.4018C36.9689 55.4018 38.3187 55.1056 39.5391 54.5374C40.7595 53.9691 41.8158 53.1449 42.6219 52.132L44.0119 50.3855L46.3402 50.7221C47.6931 50.917 49.0772 50.8164 50.3795 50.4285C51.6818 50.0406 52.8655 49.3764 53.834 48.4901C54.8024 47.6039 55.5281 46.5206 55.952 45.3287C56.3758 44.1368 56.4857 42.8701 56.2728 41.632L55.905 39.5012L57.8133 38.2292C58.9201 37.4914 59.8207 36.5247 60.4417 35.4078C61.0626 34.291 61.3862 33.0556 61.3862 31.8025C61.3862 30.5494 61.0626 29.314 60.4417 28.1971C59.8207 27.0803 58.9201 26.1135 57.8133 25.3758L55.905 24.1037L56.2728 21.973C56.4857 20.7348 56.3758 19.4681 55.952 18.2763C55.5281 17.0844 54.8024 16.0011 53.834 15.1148C52.8655 14.2285 51.6818 13.5643 50.3795 13.1765C49.0772 12.7886 47.6931 12.688 46.3402 12.8829L44.0119 13.2194Z" stroke="#80BB4A" stroke-width="4" stroke-linecap="round" stroke-linejoin="round"/>
</svg>
