<svg width="365" height="75" viewBox="0 0 365 75" fill="none" xmlns="http://www.w3.org/2000/svg">
<path d="M113.788 13.4961V19.0507H101.898V23.8018H111.4V29.3564H101.898V39.6621H96.3438V13.4961H113.764H113.788Z" fill="white"/>
<path d="M112.677 35.667V39.638H107.122V35.667H112.677Z" fill="white"/>
<path d="M136.455 34.0838V39.6384H130.901V13.4961H140.403C143.263 13.4961 145.674 14.4888 147.683 16.498C149.692 18.5071 150.685 20.9417 150.685 23.7781C150.685 26.6145 149.692 29.0491 147.683 31.0583C147.281 31.4601 146.856 31.8383 146.383 32.1692L150.685 39.6148H144.279L141.088 34.0365C140.852 34.0365 140.615 34.0601 140.403 34.0601H136.432L136.455 34.0838ZM136.455 19.0271V28.5291H140.426C141.726 28.5291 142.861 28.0564 143.783 27.1345C144.705 26.2127 145.177 25.0781 145.177 23.7781C145.177 22.4781 144.705 21.3435 143.783 20.4217C142.861 19.4998 141.726 19.0271 140.426 19.0271H136.455Z" fill="white"/>
<path d="M173.683 13.4961V19.0507H161.794V23.8018H171.296V29.3564H161.794V34.1074H173.683V39.6621H156.263V13.4961H173.683Z" fill="white"/>
<path d="M191.884 29.8055V39.6384H186.329V29.8055L176.827 13.4961H183.256L189.118 23.5654L194.98 13.4961H201.386L191.884 29.8055Z" fill="white"/>
<path d="M221.95 13.4961V19.0507H210.061V23.8018H219.563V29.3564H210.061V34.1074H221.95V39.6621H204.53V13.4961H221.95Z" fill="white"/>
<path d="M230.436 31.6026C232.114 33.7772 234.052 34.8645 236.203 34.8645C237.456 34.8645 238.472 34.6281 239.276 34.1554C240.08 33.6827 240.481 32.9736 240.481 32.0281C240.41 31.1772 239.938 30.539 239.063 30.1371L232.941 28.648C231.05 28.0571 229.561 27.1116 228.403 25.788C227.268 24.4643 226.701 23.0225 226.701 21.4388C226.701 18.7915 227.623 16.6878 229.467 15.1041C231.31 13.5204 233.461 12.7168 235.919 12.7168C239.678 12.7168 242.774 14.0877 245.232 16.8296L240.93 20.2806C239.678 18.9333 238.118 18.2478 236.203 18.2478C234.927 18.2478 233.958 18.5078 233.272 19.0515C232.587 19.5715 232.232 20.2097 232.232 20.9424C232.232 22.0061 232.941 22.8334 234.383 23.4479L240.529 24.9134C244.192 26.2843 246.012 28.6717 246.012 32.0517C246.012 34.2972 245.161 36.2591 243.483 37.9373C241.805 39.6155 239.37 40.4664 236.203 40.4664C231.901 40.4664 228.45 38.5755 225.874 34.77L230.436 31.6735V31.6026Z" fill="white"/>
<path d="M275.842 29.8055V39.6384H270.287V29.8055L260.785 13.4961H267.214L273.076 23.5654L278.938 13.4961H285.344L275.842 29.8055Z" fill="white"/>
<path d="M323.234 36.3775C320.539 39.0721 317.277 40.443 313.448 40.443C309.619 40.443 306.333 39.0957 303.615 36.3775C300.92 33.6829 299.549 30.3973 299.549 26.5445C299.549 22.6917 300.897 19.4535 303.615 16.7589C306.31 14.0643 309.595 12.6934 313.448 12.6934C317.301 12.6934 320.539 14.0407 323.234 16.7589L319.31 20.6826C317.679 19.0517 315.741 18.248 313.448 18.248C311.155 18.248 309.17 19.0517 307.562 20.6826C305.931 22.3135 305.128 24.2518 305.128 26.5445C305.128 28.8373 305.931 30.8228 307.562 32.4301C309.193 34.0374 311.155 34.8647 313.448 34.8647C315.741 34.8647 317.679 34.0611 319.31 32.4301L323.234 36.3538V36.3775Z" fill="white"/>
<path d="M332.83 13.4961V39.6384H327.275V13.4961H332.83Z" fill="white"/>
<path d="M357.389 36.4711H343.963L342.474 39.6384H336.305L348.596 13.4961H352.709L365 39.6384H358.878L357.389 36.4711ZM354.789 30.9164L350.676 22.1708L346.563 30.9164H354.813H354.789Z" fill="white"/>
<path d="M146.099 60.8427C145.272 60.8427 144.492 60.7009 143.783 60.4173C143.074 60.1336 142.459 59.7318 141.939 59.2354C141.419 58.7391 141.017 58.1245 140.734 57.439C140.45 56.7536 140.308 55.9972 140.308 55.1699C140.308 54.3426 140.45 53.5862 140.734 52.9008C141.017 52.2153 141.419 51.6244 141.963 51.1044C142.506 50.5844 143.097 50.2062 143.806 49.9225C144.516 49.6389 145.272 49.4971 146.099 49.4971C146.927 49.4971 147.636 49.6153 148.321 49.8753C149.007 50.1353 149.597 50.5135 150.094 51.0335L149.574 51.5535C149.101 51.0807 148.557 50.7498 147.99 50.5371C147.423 50.3244 146.785 50.2298 146.147 50.2298C145.437 50.2298 144.776 50.348 144.161 50.608C143.546 50.8444 143.026 51.1989 142.554 51.648C142.105 52.0971 141.75 52.6171 141.49 53.2081C141.23 53.799 141.112 54.4608 141.112 55.1463C141.112 55.8317 141.23 56.4936 141.49 57.0845C141.75 57.6754 142.081 58.1954 142.554 58.6445C143.003 59.0936 143.546 59.4482 144.161 59.6845C144.776 59.9209 145.437 60.0627 146.147 60.0627C146.785 60.0627 147.399 59.9682 147.99 59.7555C148.581 59.5427 149.101 59.2118 149.574 58.7154L150.094 59.2354C149.597 59.7555 149.007 60.1573 148.321 60.4173C147.636 60.6773 146.903 60.8191 146.099 60.8191V60.8427Z" fill="white"/>
<path d="M155.412 60.8421C154.609 60.8421 153.899 60.653 153.285 60.2984C152.67 59.9439 152.174 59.4475 151.796 58.7857C151.418 58.1475 151.252 57.4147 151.252 56.5874C151.252 55.7602 151.441 55.0274 151.796 54.3892C152.174 53.751 152.647 53.2546 153.285 52.9001C153.899 52.5455 154.609 52.3564 155.412 52.3564C156.216 52.3564 156.925 52.5455 157.563 52.9001C158.201 53.2546 158.698 53.751 159.052 54.3892C159.407 55.0274 159.596 55.7602 159.596 56.5874C159.596 57.4147 159.407 58.1475 159.052 58.7857C158.698 59.4239 158.201 59.9202 157.563 60.2984C156.925 60.6766 156.216 60.8421 155.412 60.8421ZM155.412 60.1093C156.05 60.1093 156.618 59.9675 157.138 59.6602C157.658 59.3766 158.059 58.9511 158.343 58.4311C158.627 57.9111 158.769 57.2965 158.769 56.5874C158.769 55.8783 158.627 55.2638 158.343 54.7438C158.059 54.2238 157.658 53.7983 157.138 53.5146C156.618 53.231 156.05 53.0656 155.412 53.0656C154.774 53.0656 154.207 53.2074 153.687 53.5146C153.19 53.7983 152.788 54.2238 152.481 54.7438C152.198 55.2638 152.032 55.8783 152.032 56.5874C152.032 57.2965 152.174 57.8875 152.481 58.4311C152.788 58.9748 153.167 59.3766 153.687 59.6602C154.183 59.9439 154.774 60.1093 155.412 60.1093Z" fill="white"/>
<path d="M162.054 60.7712V52.4274H162.81V54.7201L162.739 54.4601C162.976 53.7983 163.378 53.2783 163.921 52.9001C164.465 52.5455 165.174 52.3564 166.001 52.3564V53.1365C166.001 53.1365 165.93 53.1365 165.907 53.1365C165.883 53.1365 165.836 53.1365 165.812 53.1365C164.89 53.1365 164.158 53.4201 163.638 54.011C163.118 54.6019 162.858 55.4056 162.858 56.422V60.7712H162.054Z" fill="white"/>
<path d="M168.223 60.7712V52.4274H168.98V54.7201L168.909 54.4601C169.145 53.7983 169.547 53.2783 170.09 52.9001C170.634 52.5455 171.343 52.3564 172.17 52.3564V53.1365C172.17 53.1365 172.1 53.1365 172.076 53.1365C172.052 53.1365 172.005 53.1365 171.981 53.1365C171.06 53.1365 170.327 53.4201 169.807 54.011C169.287 54.6019 169.027 55.4056 169.027 56.422V60.7712H168.223Z" fill="white"/>
<path d="M177.678 60.8421C176.827 60.8421 176.094 60.653 175.456 60.2984C174.818 59.9439 174.298 59.4475 173.943 58.7857C173.565 58.1475 173.4 57.4147 173.4 56.5874C173.4 55.7602 173.565 55.0274 173.92 54.3892C174.274 53.751 174.747 53.2546 175.338 52.9001C175.953 52.5455 176.614 52.3564 177.371 52.3564C178.127 52.3564 178.813 52.5219 179.404 52.8765C179.994 53.231 180.467 53.7274 180.822 54.3419C181.176 54.9565 181.342 55.7129 181.342 56.5402C181.342 56.5638 181.342 56.6111 181.342 56.6347C181.342 56.682 181.342 56.7056 181.342 56.7529H173.991V56.1383H180.916L180.585 56.4456C180.585 55.8074 180.467 55.2165 180.184 54.6965C179.9 54.1765 179.522 53.7747 179.049 53.491C178.576 53.2074 178.009 53.0419 177.394 53.0419C176.78 53.0419 176.236 53.1837 175.74 53.491C175.243 53.7747 174.865 54.1765 174.605 54.6965C174.322 55.2165 174.18 55.8074 174.18 56.4693V56.6111C174.18 57.2965 174.322 57.8875 174.629 58.4311C174.936 58.9511 175.362 59.3766 175.882 59.6602C176.425 59.9439 177.016 60.1093 177.702 60.1093C178.245 60.1093 178.742 60.0148 179.191 59.8257C179.64 59.6366 180.042 59.3293 180.373 58.9511L180.845 59.4711C180.491 59.9202 180.018 60.2511 179.474 60.4875C178.931 60.7239 178.34 60.8421 177.702 60.8421H177.678Z" fill="white"/>
<path d="M187.015 60.8417C186.235 60.8417 185.549 60.6526 184.911 60.298C184.296 59.9435 183.8 59.4471 183.446 58.8089C183.091 58.1707 182.902 57.438 182.902 56.6107C182.902 55.7834 183.091 55.027 183.446 54.3888C183.8 53.7506 184.296 53.2542 184.911 52.8997C185.526 52.5451 186.235 52.356 187.015 52.356C187.747 52.356 188.409 52.5215 189 52.8761C189.591 53.2306 190.064 53.7033 190.395 54.3179C190.749 54.9561 190.915 55.7125 190.915 56.587C190.915 57.4616 190.749 58.1943 190.395 58.8325C190.064 59.4707 189.591 59.9671 189 60.298C188.409 60.6289 187.747 60.818 186.991 60.818L187.015 60.8417ZM187.062 60.1089C187.7 60.1089 188.267 59.9671 188.787 59.6598C189.284 59.3762 189.686 58.9507 189.993 58.4307C190.3 57.9107 190.442 57.2961 190.442 56.587C190.442 55.8779 190.3 55.2634 189.993 54.7434C189.709 54.2234 189.307 53.7979 188.787 53.5143C188.291 53.2306 187.7 53.0652 187.062 53.0652C186.424 53.0652 185.856 53.207 185.336 53.5143C184.84 53.7979 184.438 54.2234 184.131 54.7434C183.847 55.2634 183.682 55.8779 183.682 56.587C183.682 57.2961 183.824 57.8871 184.131 58.4307C184.438 58.9744 184.816 59.3762 185.336 59.6598C185.833 59.9435 186.424 60.1089 187.062 60.1089ZM190.442 60.7708V58.0289L190.584 56.587L190.418 55.1452V48.9287H191.222V60.7708H190.442Z" fill="white"/>
<path d="M197.84 60.8421C197.037 60.8421 196.328 60.653 195.713 60.2984C195.098 59.9439 194.602 59.4475 194.224 58.7857C193.846 58.1475 193.68 57.4147 193.68 56.5874C193.68 55.7602 193.869 55.0274 194.224 54.3892C194.602 53.751 195.075 53.2546 195.713 52.9001C196.328 52.5455 197.037 52.3564 197.84 52.3564C198.644 52.3564 199.353 52.5455 199.991 52.9001C200.629 53.2546 201.126 53.751 201.48 54.3892C201.835 55.0274 202.024 55.7602 202.024 56.5874C202.024 57.4147 201.835 58.1475 201.48 58.7857C201.126 59.4239 200.629 59.9202 199.991 60.2984C199.353 60.6766 198.644 60.8421 197.84 60.8421ZM197.84 60.1093C198.478 60.1093 199.046 59.9675 199.566 59.6602C200.086 59.3766 200.488 58.9511 200.771 58.4311C201.055 57.9111 201.197 57.2965 201.197 56.5874C201.197 55.8783 201.055 55.2638 200.771 54.7438C200.488 54.2238 200.086 53.7983 199.566 53.5146C199.046 53.231 198.478 53.0656 197.84 53.0656C197.202 53.0656 196.635 53.2074 196.115 53.5146C195.618 53.7983 195.217 54.2238 194.909 54.7438C194.626 55.2638 194.46 55.8783 194.46 56.5874C194.46 57.2965 194.602 57.8875 194.909 58.4311C195.217 58.9748 195.595 59.3766 196.115 59.6602C196.611 59.9439 197.202 60.1093 197.84 60.1093Z" fill="white"/>
<path d="M204.506 60.7712V52.4274H205.262V54.7201L205.191 54.4601C205.428 53.7983 205.83 53.2783 206.373 52.9001C206.917 52.5455 207.626 52.3564 208.453 52.3564V53.1365C208.453 53.1365 208.382 53.1365 208.359 53.1365C208.335 53.1365 208.288 53.1365 208.264 53.1365C207.342 53.1365 206.61 53.4201 206.09 54.011C205.57 54.6019 205.31 55.4056 205.31 56.422V60.7712H204.506Z" fill="white"/>
<path d="M213.937 60.8421C213.086 60.8421 212.353 60.653 211.715 60.2984C211.077 59.9439 210.557 59.4475 210.202 58.7857C209.824 58.1475 209.659 57.4147 209.659 56.5874C209.659 55.7602 209.824 55.0274 210.179 54.3892C210.533 53.751 211.006 53.2546 211.597 52.9001C212.211 52.5455 212.873 52.3564 213.63 52.3564C214.386 52.3564 215.071 52.5219 215.662 52.8765C216.253 53.231 216.726 53.7274 217.081 54.3419C217.435 54.9565 217.601 55.7129 217.601 56.5402C217.601 56.5638 217.601 56.6111 217.601 56.6347C217.601 56.682 217.601 56.7056 217.601 56.7529H210.249V56.1383H217.175L216.844 56.4456C216.844 55.8074 216.726 55.2165 216.442 54.6965C216.159 54.1765 215.781 53.7747 215.308 53.491C214.835 53.2074 214.268 53.0419 213.653 53.0419C213.039 53.0419 212.495 53.1837 211.999 53.491C211.502 53.7747 211.124 54.1765 210.864 54.6965C210.58 55.2165 210.439 55.8074 210.439 56.4693V56.6111C210.439 57.2965 210.58 57.8875 210.888 58.4311C211.195 58.9511 211.62 59.3766 212.14 59.6602C212.684 59.9439 213.275 60.1093 213.96 60.1093C214.504 60.1093 215.001 60.0148 215.45 59.8257C215.899 59.6366 216.301 59.3293 216.631 58.9511L217.104 59.4711C216.75 59.9202 216.277 60.2511 215.733 60.4875C215.19 60.7239 214.599 60.8421 213.96 60.8421H213.937Z" fill="white"/>
<path d="M222.21 60.8421C221.524 60.8421 220.862 60.7475 220.272 60.5348C219.681 60.3221 219.208 60.0857 218.877 59.7784L219.255 59.1402C219.586 59.4239 220.012 59.6602 220.532 59.8493C221.075 60.0384 221.642 60.133 222.257 60.133C223.132 60.133 223.746 59.9911 224.148 59.7075C224.55 59.4239 224.715 59.0457 224.715 58.5729C224.715 58.242 224.621 57.9584 224.432 57.7693C224.243 57.5802 223.983 57.4147 223.652 57.3202C223.321 57.2256 222.966 57.1311 222.564 57.0602C222.162 56.9893 221.784 56.9184 221.382 56.8238C220.981 56.7293 220.626 56.6111 220.295 56.4456C219.964 56.2802 219.704 56.0674 219.515 55.7838C219.326 55.5001 219.232 55.122 219.232 54.6492C219.232 54.2238 219.35 53.8456 219.586 53.491C219.822 53.1601 220.177 52.8765 220.65 52.6637C221.122 52.451 221.713 52.3564 222.399 52.3564C222.919 52.3564 223.439 52.4274 223.983 52.5692C224.503 52.711 224.928 52.9237 225.259 53.1601L224.881 53.7983C224.526 53.5383 224.124 53.3492 223.699 53.231C223.273 53.1128 222.824 53.0656 222.375 53.0656C221.572 53.0656 220.981 53.2074 220.602 53.5146C220.224 53.8219 220.035 54.1765 220.035 54.6256C220.035 54.9801 220.13 55.2638 220.319 55.4529C220.508 55.6656 220.768 55.8311 221.099 55.9256C221.43 56.0438 221.784 56.1383 222.186 56.1856C222.588 56.2565 222.966 56.3274 223.368 56.422C223.77 56.5165 224.124 56.6347 224.455 56.7765C224.786 56.9184 225.046 57.1547 225.235 57.4147C225.424 57.6747 225.519 58.0529 225.519 58.502C225.519 58.9511 225.401 59.3529 225.141 59.7075C224.881 60.0384 224.526 60.3221 224.03 60.5112C223.533 60.7002 222.942 60.7948 222.233 60.7948L222.21 60.8421Z" fill="white"/>
<path d="M235.045 60.8417C234.265 60.8417 233.579 60.6526 232.941 60.298C232.326 59.9435 231.83 59.4471 231.475 58.8089C231.121 58.1707 230.932 57.438 230.932 56.6107C230.932 55.7834 231.121 55.027 231.475 54.3888C231.83 53.7506 232.326 53.2542 232.941 52.8997C233.555 52.5451 234.265 52.356 235.045 52.356C235.777 52.356 236.439 52.5215 237.03 52.8761C237.621 53.2306 238.094 53.7033 238.425 54.3179C238.779 54.9561 238.945 55.7125 238.945 56.587C238.945 57.4616 238.779 58.1943 238.425 58.8325C238.094 59.4707 237.621 59.9671 237.03 60.298C236.439 60.6289 235.777 60.818 235.021 60.818L235.045 60.8417ZM235.092 60.1089C235.73 60.1089 236.297 59.9671 236.817 59.6598C237.314 59.3762 237.716 58.9507 238.023 58.4307C238.33 57.9107 238.472 57.2961 238.472 56.587C238.472 55.8779 238.33 55.2634 238.023 54.7434C237.739 54.2234 237.337 53.7979 236.817 53.5143C236.321 53.2306 235.73 53.0652 235.092 53.0652C234.454 53.0652 233.886 53.207 233.366 53.5143C232.87 53.7979 232.468 54.2234 232.161 54.7434C231.877 55.2634 231.712 55.8779 231.712 56.587C231.712 57.2961 231.854 57.8871 232.161 58.4307C232.468 58.9744 232.846 59.3762 233.366 59.6598C233.863 59.9435 234.454 60.1089 235.092 60.1089ZM238.448 60.7708V58.0289L238.59 56.587L238.425 55.1452V48.9287H239.228V60.7708H238.448Z" fill="white"/>
<path d="M245.988 60.8421C245.138 60.8421 244.405 60.653 243.767 60.2984C243.128 59.9439 242.608 59.4475 242.254 58.7857C241.876 58.1475 241.71 57.4147 241.71 56.5874C241.71 55.7602 241.876 55.0274 242.23 54.3892C242.585 53.751 243.058 53.2546 243.648 52.9001C244.263 52.5455 244.925 52.3564 245.681 52.3564C246.438 52.3564 247.123 52.5219 247.714 52.8765C248.305 53.231 248.778 53.7274 249.132 54.3419C249.487 54.9565 249.652 55.7129 249.652 56.5402C249.652 56.5638 249.652 56.6111 249.652 56.6347C249.652 56.682 249.652 56.7056 249.652 56.7529H242.301V56.1383H249.227L248.896 56.4456C248.896 55.8074 248.778 55.2165 248.494 54.6965C248.21 54.1765 247.832 53.7747 247.359 53.491C246.887 53.2074 246.319 53.0419 245.705 53.0419C245.09 53.0419 244.547 53.1837 244.05 53.491C243.554 53.7747 243.176 54.1765 242.916 54.6965C242.632 55.2165 242.49 55.8074 242.49 56.4693V56.6111C242.49 57.2965 242.632 57.8875 242.939 58.4311C243.247 58.9511 243.672 59.3766 244.192 59.6602C244.736 59.9439 245.327 60.1093 246.012 60.1093C246.556 60.1093 247.052 60.0148 247.501 59.8257C247.95 59.6366 248.352 59.3293 248.683 58.9511L249.156 59.4711C248.801 59.9202 248.329 60.2511 247.785 60.4875C247.241 60.7239 246.65 60.8421 246.012 60.8421H245.988Z" fill="white"/>
<path d="M259.438 60.8427C258.611 60.8427 257.831 60.7009 257.074 60.4173C256.342 60.1336 255.751 59.7791 255.349 59.33L255.727 58.7154C256.105 59.1173 256.625 59.4482 257.311 59.7082C257.972 59.9682 258.682 60.11 259.438 60.11C260.194 60.11 260.785 60.0155 261.258 59.8264C261.731 59.6373 262.085 59.3773 262.322 59.0463C262.558 58.7154 262.676 58.3609 262.676 57.9354C262.676 57.4627 262.558 57.0845 262.298 56.7772C262.038 56.4936 261.707 56.2572 261.282 56.0917C260.856 55.9263 260.407 55.7845 259.934 55.6663C259.438 55.5481 258.942 55.4299 258.445 55.2881C257.949 55.1463 257.476 54.9808 257.074 54.7681C256.649 54.5554 256.318 54.2717 256.081 53.8935C255.821 53.5153 255.703 53.0426 255.703 52.4753C255.703 51.9317 255.845 51.4589 256.129 51.0098C256.412 50.5607 256.838 50.2062 257.429 49.9225C258.02 49.6389 258.752 49.4971 259.674 49.4971C260.289 49.4971 260.903 49.5916 261.494 49.7571C262.085 49.9225 262.605 50.1825 263.031 50.4898L262.723 51.1516C262.251 50.8207 261.754 50.5844 261.211 50.4425C260.667 50.2771 260.147 50.2062 259.651 50.2062C258.942 50.2062 258.351 50.3007 257.878 50.5135C257.405 50.7262 257.074 50.9862 256.838 51.3171C256.625 51.648 256.507 52.0262 256.507 52.4517C256.507 52.9244 256.625 53.3262 256.885 53.6099C257.145 53.8935 257.476 54.1299 257.878 54.2953C258.303 54.4608 258.752 54.6026 259.249 54.7208C259.745 54.839 260.242 54.9572 260.738 55.099C261.234 55.2408 261.683 55.4063 262.085 55.619C262.511 55.8317 262.842 56.1154 263.102 56.4699C263.362 56.8245 263.48 57.2972 263.48 57.8645C263.48 58.3845 263.338 58.8809 263.054 59.33C262.771 59.7791 262.322 60.1336 261.731 60.4173C261.14 60.7009 260.383 60.8191 259.462 60.8191L259.438 60.8427Z" fill="white"/>
<path d="M269.365 60.8421C268.514 60.8421 267.782 60.653 267.144 60.2984C266.505 59.9439 265.985 59.4475 265.631 58.7857C265.253 58.1475 265.087 57.4147 265.087 56.5874C265.087 55.7602 265.253 55.0274 265.607 54.3892C265.962 53.751 266.434 53.2546 267.025 52.9001C267.64 52.5455 268.302 52.3564 269.058 52.3564C269.815 52.3564 270.5 52.5219 271.091 52.8765C271.682 53.231 272.155 53.7274 272.509 54.3419C272.864 54.9565 273.029 55.7129 273.029 56.5402C273.029 56.5638 273.029 56.6111 273.029 56.6347C273.029 56.682 273.029 56.7056 273.029 56.7529H265.678V56.1383H272.604L272.273 56.4456C272.273 55.8074 272.155 55.2165 271.871 54.6965C271.587 54.1765 271.209 53.7747 270.736 53.491C270.264 53.2074 269.696 53.0419 269.082 53.0419C268.467 53.0419 267.924 53.1837 267.427 53.491C266.931 53.7747 266.553 54.1765 266.293 54.6965C266.009 55.2165 265.867 55.8074 265.867 56.4693V56.6111C265.867 57.2965 266.009 57.8875 266.316 58.4311C266.624 58.9511 267.049 59.3766 267.569 59.6602C268.113 59.9439 268.704 60.1093 269.389 60.1093C269.933 60.1093 270.429 60.0148 270.878 59.8257C271.327 59.6366 271.729 59.3293 272.06 58.9511L272.533 59.4711C272.178 59.9202 271.705 60.2511 271.162 60.4875C270.618 60.7239 270.027 60.8421 269.389 60.8421H269.365Z" fill="white"/>
<path d="M278.749 60.4639C277.969 60.4639 277.26 60.2984 276.622 59.9439C276.007 59.5893 275.511 59.1166 275.133 58.502C274.754 57.8875 274.589 57.202 274.589 56.3983C274.589 55.5947 274.778 54.8856 275.133 54.2947C275.511 53.6801 275.983 53.2074 276.622 52.8765C277.26 52.5455 277.945 52.3564 278.749 52.3564C279.553 52.3564 280.191 52.5219 280.782 52.8528C281.373 53.1837 281.869 53.6328 282.2 54.2474C282.554 54.8383 282.72 55.5711 282.72 56.422C282.72 57.2729 282.554 57.982 282.2 58.5729C281.845 59.1875 281.373 59.6366 280.782 59.9675C280.191 60.2984 279.505 60.4639 278.749 60.4639ZM278.962 63.9385C278.205 63.9385 277.496 63.8203 276.811 63.5839C276.125 63.3476 275.582 63.0167 275.156 62.6148L275.582 62.0003C276.007 62.3785 276.503 62.6857 277.071 62.8985C277.662 63.1112 278.276 63.2294 278.938 63.2294C280.049 63.2294 280.876 62.9694 281.396 62.4494C281.916 61.9294 282.176 61.1021 282.176 59.9911V57.6747L282.342 56.422L282.224 55.1692V52.4274H282.98V59.873C282.98 61.2675 282.649 62.2839 281.964 62.9457C281.278 63.6076 280.285 63.9385 278.938 63.9385H278.962ZM278.82 59.7548C279.482 59.7548 280.073 59.613 280.593 59.3293C281.113 59.0457 281.514 58.6438 281.798 58.1475C282.082 57.6511 282.247 57.0602 282.247 56.422C282.247 55.7838 282.105 55.1929 281.798 54.6729C281.514 54.1765 281.113 53.7747 280.593 53.5146C280.073 53.231 279.482 53.0892 278.82 53.0892C278.158 53.0892 277.591 53.231 277.071 53.5146C276.551 53.7983 276.149 54.1765 275.865 54.6729C275.582 55.1692 275.416 55.7602 275.416 56.422C275.416 57.0838 275.558 57.6511 275.865 58.1475C276.173 58.6438 276.551 59.0457 277.071 59.3293C277.591 59.613 278.158 59.7548 278.82 59.7548Z" fill="white"/>
<path d="M289.788 60.8417C289.079 60.8417 288.464 60.6998 287.944 60.4398C287.424 60.1798 287.022 59.778 286.738 59.258C286.455 58.738 286.313 58.0762 286.313 57.2961V52.427H287.117V57.2252C287.117 58.1707 287.353 58.8798 287.826 59.3762C288.298 59.8726 288.984 60.1089 289.859 60.1089C290.497 60.1089 291.04 59.9671 291.489 59.7071C291.939 59.4471 292.293 59.0689 292.553 58.5725C292.789 58.0998 292.931 57.5089 292.931 56.847V52.4033H293.735V60.7471H292.979V58.4307L293.097 58.6907C292.86 59.3289 292.435 59.8489 291.868 60.2271C291.3 60.6053 290.615 60.7944 289.835 60.7944L289.788 60.8417Z" fill="white"/>
<path d="M297.068 60.7712V52.4274H297.824V54.7201L297.753 54.4601C297.989 53.7983 298.391 53.2783 298.935 52.9001C299.478 52.5455 300.188 52.3564 301.015 52.3564V53.1365C301.015 53.1365 300.944 53.1365 300.92 53.1365C300.897 53.1365 300.849 53.1365 300.826 53.1365C299.904 53.1365 299.171 53.4201 298.651 54.011C298.131 54.6019 297.871 55.4056 297.871 56.422V60.7712H297.068Z" fill="white"/>
<path d="M306.404 60.8421C305.601 60.8421 304.891 60.653 304.277 60.2984C303.662 59.9439 303.166 59.4475 302.788 58.7857C302.41 58.1475 302.244 57.4147 302.244 56.5874C302.244 55.7602 302.433 55.0274 302.788 54.3892C303.166 53.751 303.639 53.2546 304.277 52.9001C304.891 52.5455 305.601 52.3564 306.404 52.3564C307.208 52.3564 307.917 52.5455 308.555 52.9001C309.193 53.2546 309.69 53.751 310.044 54.3892C310.399 55.0274 310.588 55.7602 310.588 56.5874C310.588 57.4147 310.399 58.1475 310.044 58.7857C309.69 59.4239 309.193 59.9202 308.555 60.2984C307.917 60.6766 307.208 60.8421 306.404 60.8421ZM306.404 60.1093C307.042 60.1093 307.61 59.9675 308.13 59.6602C308.65 59.3766 309.052 58.9511 309.335 58.4311C309.619 57.9111 309.761 57.2965 309.761 56.5874C309.761 55.8783 309.619 55.2638 309.335 54.7438C309.052 54.2238 308.65 53.7983 308.13 53.5146C307.61 53.231 307.042 53.0656 306.404 53.0656C305.766 53.0656 305.199 53.2074 304.679 53.5146C304.182 53.7983 303.781 54.2238 303.473 54.7438C303.19 55.2638 303.024 55.8783 303.024 56.5874C303.024 57.2965 303.166 57.8875 303.473 58.4311C303.781 58.9748 304.159 59.3766 304.679 59.6602C305.175 59.9439 305.766 60.1093 306.404 60.1093Z" fill="white"/>
<path d="M315.15 60.8421C314.464 60.8421 313.802 60.7475 313.211 60.5348C312.621 60.3221 312.148 60.0857 311.817 59.7784L312.195 59.1402C312.526 59.4239 312.951 59.6602 313.471 59.8493C314.015 60.0384 314.582 60.133 315.197 60.133C316.072 60.133 316.686 59.9911 317.088 59.7075C317.49 59.4239 317.655 59.0457 317.655 58.5729C317.655 58.242 317.561 57.9584 317.372 57.7693C317.182 57.5802 316.922 57.4147 316.592 57.3202C316.261 57.2256 315.906 57.1311 315.504 57.0602C315.102 56.9893 314.724 56.9184 314.322 56.8238C313.921 56.7293 313.566 56.6111 313.235 56.4456C312.904 56.2802 312.644 56.0674 312.455 55.7838C312.266 55.5001 312.171 55.122 312.171 54.6492C312.171 54.2238 312.29 53.8456 312.526 53.491C312.762 53.1601 313.117 52.8765 313.59 52.6637C314.062 52.451 314.653 52.3564 315.339 52.3564C315.859 52.3564 316.379 52.4274 316.922 52.5692C317.442 52.711 317.868 52.9237 318.199 53.1601L317.821 53.7983C317.466 53.5383 317.064 53.3492 316.639 53.231C316.213 53.1128 315.764 53.0656 315.315 53.0656C314.511 53.0656 313.921 53.2074 313.542 53.5146C313.164 53.8219 312.975 54.1765 312.975 54.6256C312.975 54.9801 313.07 55.2638 313.259 55.4529C313.448 55.6656 313.708 55.8311 314.039 55.9256C314.37 56.0438 314.724 56.1383 315.126 56.1856C315.528 56.2565 315.906 56.3274 316.308 56.422C316.71 56.5165 317.064 56.6347 317.395 56.7765C317.726 56.9184 317.986 57.1547 318.175 57.4147C318.364 57.6747 318.459 58.0529 318.459 58.502C318.459 58.9511 318.341 59.3529 318.081 59.7075C317.821 60.0384 317.466 60.3221 316.97 60.5112C316.473 60.7002 315.882 60.7948 315.173 60.7948L315.15 60.8421Z" fill="white"/>
<path d="M11.9838 62.2123C15.0329 65.2378 21.5567 70.7925 31.0823 72.1634C45.4771 74.2435 60.6756 65.9469 69.5394 51.103L66.8212 49.023L77.9541 39.1191L76.3705 56.3268L73.6286 54.2231C63.252 69.5397 46.4935 77.4108 31.4132 74.1489C21.4621 71.998 14.9856 65.616 12.0074 62.1887L11.9838 62.2123Z" fill="white"/>
<path d="M32.9262 19.5708V20.0199C33.1153 20.0908 33.2807 20.1381 33.4698 20.1854V19.7363C33.2807 19.689 33.0916 19.6181 32.9262 19.5708ZM32.9262 19.5708V20.0199C33.1153 20.0908 33.2807 20.1381 33.4698 20.1854V19.7363C33.2807 19.689 33.0916 19.6181 32.9262 19.5708ZM32.9262 19.5708V20.0199C33.1153 20.0908 33.2807 20.1381 33.4698 20.1854V19.7363C33.2807 19.689 33.0916 19.6181 32.9262 19.5708ZM32.9262 19.5708V20.0199C33.1153 20.0908 33.2807 20.1381 33.4698 20.1854V19.7363C33.2807 19.689 33.0916 19.6181 32.9262 19.5708ZM32.9262 19.5708V20.0199C33.1153 20.0908 33.2807 20.1381 33.4698 20.1854V19.7363C33.2807 19.689 33.0916 19.6181 32.9262 19.5708ZM22.8096 26.9692C20.3277 25.811 18.0822 24.5109 16.1204 23.2109V23.7073C18.035 24.96 20.2095 26.2128 22.6205 27.3474C24.606 28.2692 26.6388 29.0728 28.6715 29.7347H29.3806V29.9474C30.7279 30.3729 32.0752 30.7038 33.4462 31.0111V30.562C29.357 29.6874 25.7878 28.3874 22.8096 26.9692ZM52.0956 22.9745C51.9538 22.8564 51.812 22.7854 51.6702 22.7145C51.7411 24.9128 51.6702 27.2528 51.4574 29.711C51.5993 29.6401 51.7647 29.5692 51.9065 29.4747C52.1193 27.2055 52.1665 25.0309 52.1193 22.9745H52.0956ZM32.9262 19.5708V20.0199C33.1153 20.0908 33.2807 20.1381 33.4698 20.1854V19.7363C33.2807 19.689 33.0916 19.6181 32.9262 19.5708ZM22.8096 26.9692C20.3277 25.811 18.0822 24.5109 16.1204 23.2109V23.7073C18.035 24.96 20.2095 26.2128 22.6205 27.3474C24.606 28.2692 26.6388 29.0728 28.6715 29.7347H29.3806V29.9474C30.7279 30.3729 32.0752 30.7038 33.4462 31.0111V30.562C29.357 29.6874 25.7878 28.3874 22.8096 26.9692ZM52.0956 22.9745C51.9538 22.8564 51.812 22.7854 51.6702 22.7145C51.7411 24.9128 51.6702 27.2528 51.4574 29.711C51.5993 29.6401 51.7647 29.5692 51.9065 29.4747C52.1193 27.2055 52.1665 25.0309 52.1193 22.9745H52.0956ZM32.9262 19.5708V20.0199C33.1153 20.0908 33.2807 20.1381 33.4698 20.1854V19.7363C33.2807 19.689 33.0916 19.6181 32.9262 19.5708ZM52.0956 22.9745C51.9538 22.8564 51.812 22.7854 51.6702 22.7145C51.7411 24.9128 51.6702 27.2528 51.4574 29.711C51.5993 29.6401 51.7647 29.5692 51.9065 29.4747C52.1193 27.2055 52.1665 25.0309 52.1193 22.9745H52.0956ZM32.9262 19.5708V20.0199C33.1153 20.0908 33.2807 20.1381 33.4698 20.1854V19.7363C33.2807 19.689 33.0916 19.6181 32.9262 19.5708ZM52.0956 22.9745C51.9538 22.8564 51.812 22.7854 51.6702 22.7145C51.7411 24.9128 51.6702 27.2528 51.4574 29.711C51.5993 29.6401 51.7647 29.5692 51.9065 29.4747C52.1193 27.2055 52.1665 25.0309 52.1193 22.9745H52.0956ZM32.9262 19.5708V20.0199C33.1153 20.0908 33.2807 20.1381 33.4698 20.1854V19.7363C33.2807 19.689 33.0916 19.6181 32.9262 19.5708ZM52.0956 22.9745C51.9538 22.8564 51.812 22.7854 51.6702 22.7145C51.7411 24.9128 51.6702 27.2528 51.4574 29.711C51.5993 29.6401 51.7647 29.5692 51.9065 29.4747C52.1193 27.2055 52.1665 25.0309 52.1193 22.9745H52.0956ZM32.9262 19.5708V20.0199C33.1153 20.0908 33.2807 20.1381 33.4698 20.1854V19.7363C33.2807 19.689 33.0916 19.6181 32.9262 19.5708ZM52.0956 22.9745C51.9538 22.8564 51.812 22.7854 51.6702 22.7145C51.7411 24.9128 51.6702 27.2528 51.4574 29.711C51.5993 29.6401 51.7647 29.5692 51.9065 29.4747C52.1193 27.2055 52.1665 25.0309 52.1193 22.9745H52.0956ZM32.9262 19.5708V20.0199C33.1153 20.0908 33.2807 20.1381 33.4698 20.1854V19.7363C33.2807 19.689 33.0916 19.6181 32.9262 19.5708ZM22.8096 26.9692C20.3277 25.811 18.0822 24.5109 16.1204 23.2109V23.7073C18.035 24.96 20.2095 26.2128 22.6205 27.3474C24.606 28.2692 26.6388 29.0728 28.6715 29.7347H29.3806V29.9474C30.7279 30.3729 32.0752 30.7038 33.4462 31.0111V30.562C29.357 29.6874 25.7878 28.3874 22.8096 26.9692ZM52.0956 22.9745C51.9538 22.8564 51.812 22.7854 51.6702 22.7145C51.7411 24.9128 51.6702 27.2528 51.4574 29.711C51.5993 29.6401 51.7647 29.5692 51.9065 29.4747C52.1193 27.2055 52.1665 25.0309 52.1193 22.9745H52.0956ZM22.8096 26.9692C20.3277 25.811 18.0822 24.5109 16.1204 23.2109V23.7073C18.035 24.96 20.2095 26.2128 22.6205 27.3474C24.606 28.2692 26.6388 29.0728 28.6715 29.7347H29.3806V29.9474C30.7279 30.3729 32.0752 30.7038 33.4462 31.0111V30.562C29.357 29.6874 25.7878 28.3874 22.8096 26.9692ZM32.9262 19.5708V20.0199C33.1153 20.0908 33.2807 20.1381 33.4698 20.1854V19.7363C33.2807 19.689 33.0916 19.6181 32.9262 19.5708ZM52.0956 22.9745C51.9538 22.8564 51.812 22.7854 51.6702 22.7145C51.7411 24.9128 51.6702 27.2528 51.4574 29.711C51.5993 29.6401 51.7647 29.5692 51.9065 29.4747C52.1193 27.2055 52.1665 25.0309 52.1193 22.9745H52.0956ZM32.9262 19.5708V20.0199C33.1153 20.0908 33.2807 20.1381 33.4698 20.1854V19.7363C33.2807 19.689 33.0916 19.6181 32.9262 19.5708ZM22.8096 26.9692C20.3277 25.811 18.0822 24.5109 16.1204 23.2109V23.7073C18.035 24.96 20.2095 26.2128 22.6205 27.3474C24.606 28.2692 26.6388 29.0728 28.6715 29.7347H29.3806V29.9474C30.7279 30.3729 32.0752 30.7038 33.4462 31.0111V30.562C29.357 29.6874 25.7878 28.3874 22.8096 26.9692ZM52.0956 22.9745C51.9538 22.8564 51.812 22.7854 51.6702 22.7145C51.7411 24.9128 51.6702 27.2528 51.4574 29.711C51.5993 29.6401 51.7647 29.5692 51.9065 29.4747C52.1193 27.2055 52.1665 25.0309 52.1193 22.9745H52.0956ZM52.0956 22.9745C51.9538 22.8564 51.812 22.7854 51.6702 22.7145C51.7411 24.9128 51.6702 27.2528 51.4574 29.711C51.5993 29.6401 51.7647 29.5692 51.9065 29.4747C52.1193 27.2055 52.1665 25.0309 52.1193 22.9745H52.0956ZM52.0956 22.9745C51.9538 22.8564 51.812 22.7854 51.6702 22.7145C51.7411 24.9128 51.6702 27.2528 51.4574 29.711C51.5993 29.6401 51.7647 29.5692 51.9065 29.4747C52.1193 27.2055 52.1665 25.0309 52.1193 22.9745H52.0956ZM52.0956 22.9745C51.9538 22.8564 51.812 22.7854 51.6702 22.7145C51.7411 24.9128 51.6702 27.2528 51.4574 29.711C51.5993 29.6401 51.7647 29.5692 51.9065 29.4747C52.1193 27.2055 52.1665 25.0309 52.1193 22.9745H52.0956ZM52.0956 22.9745C51.9538 22.8564 51.812 22.7854 51.6702 22.7145C51.7411 24.9128 51.6702 27.2528 51.4574 29.711C51.5993 29.6401 51.7647 29.5692 51.9065 29.4747C52.1193 27.2055 52.1665 25.0309 52.1193 22.9745H52.0956ZM52.0956 22.9745C51.9538 22.8564 51.812 22.7854 51.6702 22.7145C51.7411 24.9128 51.6702 27.2528 51.4574 29.711C51.5993 29.6401 51.7647 29.5692 51.9065 29.4747C52.1193 27.2055 52.1665 25.0309 52.1193 22.9745H52.0956ZM52.0956 22.9745C51.9538 22.8564 51.812 22.7854 51.6702 22.7145C51.7411 24.9128 51.6702 27.2528 51.4574 29.711C51.5993 29.6401 51.7647 29.5692 51.9065 29.4747C52.1193 27.2055 52.1665 25.0309 52.1193 22.9745H52.0956ZM52.0956 22.9745C51.9538 22.8564 51.812 22.7854 51.6702 22.7145C51.7411 24.9128 51.6702 27.2528 51.4574 29.711C51.5993 29.6401 51.7647 29.5692 51.9065 29.4747C52.1193 27.2055 52.1665 25.0309 52.1193 22.9745H52.0956ZM51.4102 30.4438C51.4102 30.4438 51.4102 30.4438 51.3865 30.4438C51.3629 30.6329 51.3392 30.8456 51.3156 31.0347C51.3156 31.1765 51.292 31.3183 51.2683 31.4838C51.4102 31.4838 51.552 31.4365 51.6938 31.4129C51.6938 31.2711 51.7411 31.1056 51.7411 30.9638C51.7647 30.7274 51.7883 30.5147 51.812 30.2783C51.6938 30.3492 51.552 30.3965 51.4102 30.4201V30.4438ZM67.365 26.5673C67.365 26.5673 67.3177 26.3782 67.2941 26.2837C66.5614 23.3527 65.4741 20.5636 64.0559 17.9872C63.985 17.869 63.914 17.7508 63.8431 17.6326C62.614 15.458 61.1485 13.4489 59.494 11.6289C59.3994 11.5107 59.2812 11.3925 59.1867 11.2979C56.1139 7.96515 52.3793 5.27055 48.1955 3.37961C48.0065 3.3087 47.841 3.23779 47.6755 3.14324C44.5555 1.79594 41.1991 0.921377 37.6772 0.566825C37.299 0.519551 36.9444 0.495915 36.5662 0.472278C35.7862 0.425004 35.0298 0.401367 34.2262 0.401367C30.9879 0.401367 27.8442 0.850467 24.866 1.70139C24.7242 1.74867 24.5824 1.7723 24.4642 1.81958C21.5332 2.69414 18.7441 3.94689 16.1913 5.5542C16.0731 5.62511 15.9549 5.69602 15.8367 5.76693C12.1967 8.10697 9.02933 11.1089 6.52382 14.6071H6.8311C9.28933 11.1561 12.3621 8.20152 15.9076 5.88511C16.3095 6.75967 17.8931 9.87974 21.2023 13.0943C20.8477 13.5907 20.4932 14.0871 20.1386 14.5835H20.6586C20.9423 14.158 21.2259 13.7562 21.5096 13.378C21.935 13.7798 22.3841 14.1816 22.8805 14.5835H23.5423C22.9041 14.0635 22.3132 13.5671 21.7696 13.0471C23.046 11.3216 24.2987 9.8561 25.4569 8.65062C26.4024 7.65787 27.3242 6.78331 28.2224 6.0033C29.0734 6.68876 30.1134 7.42151 31.3425 8.13061C34.9826 10.187 40.939 12.3143 50.1338 12.3143C50.252 12.3143 50.3465 12.3143 50.4647 12.3143C50.6301 13.0471 50.772 13.8034 50.9138 14.6071C51.0556 14.6071 51.1974 14.6071 51.3392 14.6071C51.1974 13.8034 51.0556 13.0234 50.8902 12.2907C53.4902 12.2671 56.3266 12.0543 59.423 11.6525C61.054 13.4962 62.5195 15.5053 63.7249 17.6563C62.8267 17.9635 61.9522 18.2235 61.0776 18.5072C61.1722 18.6254 61.2667 18.7435 61.3613 18.8617C62.2122 18.6017 63.0868 18.3417 63.9377 18.0344C65.3323 20.5872 66.4195 23.3291 67.1523 26.2128C65.9704 26.7564 64.7886 27.2528 63.6304 27.7019C63.6304 27.8674 63.5831 28.0328 63.5595 28.1746C64.7886 27.7019 66.0177 27.1819 67.2468 26.6146C67.8378 29.1201 68.145 31.7438 68.145 34.4384C68.145 35.2657 68.1214 36.0693 68.0505 36.873C65.0723 37.9367 62.2122 38.8585 59.3994 39.6385L59.5649 40.0167C62.3067 39.2367 65.1195 38.3385 68.0269 37.3221C67.6959 41.2458 66.7268 44.9804 65.1904 48.4078C64.5759 48.6441 63.985 48.8805 63.3704 49.0932L63.5359 49.4714C64.0086 49.306 64.4577 49.1169 64.9304 48.9278C64.6468 49.5187 64.3631 50.1096 64.0559 50.6769L64.1504 50.866C64.5286 50.2042 64.8595 49.5187 65.1904 48.8096C65.2377 48.6914 65.285 48.5969 65.3559 48.4787C66.9396 45.0041 67.9559 41.1985 68.2632 37.2039C68.2632 37.133 68.2632 37.0621 68.2632 36.9912C68.3341 36.1403 68.3578 35.2657 68.3578 34.3911C68.3578 31.6729 68.0269 29.0256 67.4359 26.4964L67.365 26.5673ZM34.2498 0.425004C34.9826 0.425004 35.7153 0.448641 36.448 0.495914C34.888 1.01592 31.8389 2.33959 28.1515 5.48329C26.166 3.80507 25.1733 2.29231 24.866 1.74867C27.8442 0.874104 30.9879 0.425004 34.2498 0.425004ZM25.1496 8.34334C23.8733 9.69064 22.6205 11.1561 21.415 12.7634C18.1059 9.52518 16.5695 6.40512 16.2149 5.64874C18.7677 4.04144 21.5332 2.74141 24.4642 1.84321C24.7478 2.33959 25.7169 3.92325 27.8442 5.74329C26.9697 6.49967 26.0715 7.35059 25.1496 8.31971V8.34334ZM31.508 7.79969C30.3261 7.13786 29.3097 6.42876 28.4824 5.74329C33.6825 1.37048 37.6063 0.614099 37.6535 0.590462C41.1754 0.945014 44.5555 1.84321 47.6755 3.21415C48.361 5.08146 49.4483 8.03606 50.2992 11.9125C41.0809 11.9598 35.1244 9.8561 31.508 7.79969ZM50.7483 11.9125C49.921 8.22516 48.9283 5.3651 48.2192 3.45052C52.332 5.31783 55.9957 8.01243 59.0449 11.2979C56.043 11.6998 53.2775 11.8652 50.7483 11.9125ZM6.21654 51.7406C6.21654 51.7406 6.21654 51.7878 6.21654 51.8115H6.28745C6.28745 51.8115 6.24018 51.7642 6.21654 51.7406ZM63.3704 51.8115C62.2358 53.7497 60.9122 55.5461 59.423 57.2007C51.6702 61.2189 44.5791 62.9208 38.2917 63.2281C40.4427 60.628 42.6173 57.4843 44.5791 53.7733C48.4083 53.4897 52.332 52.8515 56.303 51.7878H54.5775C51.1738 52.5915 47.9119 53.0879 44.8391 53.3006C46.5173 50.1096 48.0537 46.4695 49.3065 42.3804C49.5192 42.3331 49.7556 42.3095 49.9683 42.2622L49.8265 41.884C49.6847 41.9076 49.5665 41.9313 49.4247 41.9549C49.4956 41.7422 49.5429 41.5531 49.6138 41.3404L49.3774 40.7022C49.2592 41.1513 49.1174 41.5767 48.9756 42.0258C48.9283 42.1676 48.881 42.3095 48.8574 42.4513C47.581 46.5168 46.0446 50.1333 44.3664 53.3242C32.6425 54.1042 23.3769 51.1024 16.9004 47.7459C16.6404 47.6041 16.3804 47.4859 16.144 47.3441V47.8168C16.3331 47.9114 16.4986 48.0059 16.6877 48.1005C23.0696 51.4096 29.9479 53.3242 37.1335 53.7733C38.2917 53.8442 39.4499 53.8915 40.6081 53.8915C41.7663 53.8915 42.9482 53.8679 44.1064 53.7733C42.0972 57.4843 39.899 60.6044 37.7481 63.2044C29.9716 63.4881 23.4714 61.5971 18.6259 59.3753C13.4731 57.0116 9.5257 54.057 6.90201 51.7406H6.28745C8.93478 54.1279 13.0476 57.2952 18.5313 59.7771C24.2042 62.3535 30.1607 63.6535 36.259 63.6535H36.3771C36.7081 63.6535 37.039 63.6535 37.3699 63.6535C35.7626 65.5445 34.1789 67.1281 32.7134 68.4754C21.5332 67.9554 11.7476 61.9517 5.95654 53.0879C6.05109 52.6388 6.14563 52.2133 6.24018 51.7642H6.07472V50.5114C6.05109 50.6296 6.00381 50.7715 5.98018 50.9133C4.39651 49.4242 3.47467 48.3369 3.26194 48.0769C1.51281 44.0822 0.520067 39.6858 0.449157 35.0766C1.20554 36.0221 3.12012 38.2676 6.09836 40.8676V40.324C2.64738 37.2748 0.732799 34.7693 0.449157 34.3911C0.449157 30.4438 1.13462 26.6619 2.36374 23.14C2.7892 24.3218 3.8765 26.9692 6.09836 29.971V29.2619C3.73468 25.9055 2.7892 23.1164 2.60011 22.5018C3.49831 20.0672 4.68015 17.7508 6.09836 15.6235V15.198C4.56197 17.4435 3.28558 19.8781 2.31647 22.4545C2.29283 22.5254 2.24556 22.62 2.22192 22.6909C0.827346 26.4019 0.0946045 30.3492 0.0946045 34.4857V34.6984C0.118241 39.4967 1.13463 44.0586 2.95466 48.195C3.02557 48.3369 3.09648 48.5023 3.16739 48.6441C3.85286 50.1569 4.65651 51.5987 5.55471 52.9933C5.60199 53.0642 5.64926 53.1351 5.69653 53.206C11.5112 62.0935 21.3914 68.0736 32.6898 68.57C32.8789 68.57 33.0916 68.57 33.2807 68.5936C33.588 68.5936 33.8953 68.5936 34.2262 68.5936C43.9882 68.5936 52.7811 64.5044 58.9976 57.9334C59.1867 57.7207 59.3994 57.5079 59.5885 57.2952C61.1013 55.617 62.4486 53.797 63.5831 51.8351H63.394L63.3704 51.8115ZM3.80559 49.3769C4.30196 49.9205 4.98743 50.6296 5.86199 51.4333C5.76744 51.8351 5.69653 52.2369 5.60199 52.6388C4.94015 51.5751 4.3256 50.4878 3.78195 49.3769H3.80559ZM34.2498 68.5463C33.9189 68.5463 33.6116 68.5463 33.2807 68.5463C34.7462 67.1991 36.3062 65.5917 37.9135 63.7008C44.6973 63.4408 51.6702 61.5498 58.6194 58.0752C52.4738 64.5281 43.7991 68.5463 34.2262 68.5463H34.2498ZM16.9713 38.7876C16.6877 38.6458 16.404 38.4803 16.1204 38.3385V38.8112C16.3331 38.9294 16.5458 39.0476 16.7586 39.1421C21.5332 41.6476 27.1588 43.0895 33.4462 43.4677V43.0658C27.2297 42.7113 21.7459 41.2694 16.9477 38.7639L16.9713 38.7876ZM52.0956 22.9745C51.9538 22.8564 51.812 22.7854 51.6702 22.7145C51.7411 24.9128 51.6702 27.2528 51.4574 29.711C51.5993 29.6401 51.7647 29.5692 51.9065 29.4747C52.1193 27.2055 52.1665 25.0309 52.1193 22.9745H52.0956ZM52.0956 22.9745C51.9538 22.8564 51.812 22.7854 51.6702 22.7145C51.7411 24.9128 51.6702 27.2528 51.4574 29.711C51.5993 29.6401 51.7647 29.5692 51.9065 29.4747C52.1193 27.2055 52.1665 25.0309 52.1193 22.9745H52.0956ZM52.0956 22.9745C51.9538 22.8564 51.812 22.7854 51.6702 22.7145C51.7411 24.9128 51.6702 27.2528 51.4574 29.711C51.5993 29.6401 51.7647 29.5692 51.9065 29.4747C52.1193 27.2055 52.1665 25.0309 52.1193 22.9745H52.0956ZM52.0956 22.9745C51.9538 22.8564 51.812 22.7854 51.6702 22.7145C51.7411 24.9128 51.6702 27.2528 51.4574 29.711C51.5993 29.6401 51.7647 29.5692 51.9065 29.4747C52.1193 27.2055 52.1665 25.0309 52.1193 22.9745H52.0956ZM52.0956 22.9745C51.9538 22.8564 51.812 22.7854 51.6702 22.7145C51.7411 24.9128 51.6702 27.2528 51.4574 29.711C51.5993 29.6401 51.7647 29.5692 51.9065 29.4747C52.1193 27.2055 52.1665 25.0309 52.1193 22.9745H52.0956ZM52.0956 22.9745C51.9538 22.8564 51.812 22.7854 51.6702 22.7145C51.7411 24.9128 51.6702 27.2528 51.4574 29.711C51.5993 29.6401 51.7647 29.5692 51.9065 29.4747C52.1193 27.2055 52.1665 25.0309 52.1193 22.9745H52.0956ZM52.0956 22.9745C51.9538 22.8564 51.812 22.7854 51.6702 22.7145C51.7411 24.9128 51.6702 27.2528 51.4574 29.711C51.5993 29.6401 51.7647 29.5692 51.9065 29.4747C52.1193 27.2055 52.1665 25.0309 52.1193 22.9745H52.0956ZM52.0956 22.9745C51.9538 22.8564 51.812 22.7854 51.6702 22.7145C51.7411 24.9128 51.6702 27.2528 51.4574 29.711C51.5993 29.6401 51.7647 29.5692 51.9065 29.4747C52.1193 27.2055 52.1665 25.0309 52.1193 22.9745H52.0956ZM32.9262 19.5708V20.0199C33.1153 20.0908 33.2807 20.1381 33.4698 20.1854V19.7363C33.2807 19.689 33.0916 19.6181 32.9262 19.5708ZM22.8096 26.9692C20.3277 25.811 18.0822 24.5109 16.1204 23.2109V23.7073C18.035 24.96 20.2095 26.2128 22.6205 27.3474C24.606 28.2692 26.6388 29.0728 28.6715 29.7347H29.3806V29.9474C30.7279 30.3729 32.0752 30.7038 33.4462 31.0111V30.562C29.357 29.6874 25.7878 28.3874 22.8096 26.9692ZM52.0956 22.9745C51.9538 22.8564 51.812 22.7854 51.6702 22.7145C51.7411 24.9128 51.6702 27.2528 51.4574 29.711C51.5993 29.6401 51.7647 29.5692 51.9065 29.4747C52.1193 27.2055 52.1665 25.0309 52.1193 22.9745H52.0956ZM22.8096 26.9692C20.3277 25.811 18.0822 24.5109 16.1204 23.2109V23.7073C18.035 24.96 20.2095 26.2128 22.6205 27.3474C24.606 28.2692 26.6388 29.0728 28.6715 29.7347H29.3806V29.9474C30.7279 30.3729 32.0752 30.7038 33.4462 31.0111V30.562C29.357 29.6874 25.7878 28.3874 22.8096 26.9692ZM32.9262 19.5708V20.0199C33.1153 20.0908 33.2807 20.1381 33.4698 20.1854V19.7363C33.2807 19.689 33.0916 19.6181 32.9262 19.5708ZM52.0956 22.9745C51.9538 22.8564 51.812 22.7854 51.6702 22.7145C51.7411 24.9128 51.6702 27.2528 51.4574 29.711C51.5993 29.6401 51.7647 29.5692 51.9065 29.4747C52.1193 27.2055 52.1665 25.0309 52.1193 22.9745H52.0956ZM32.9262 19.5708V20.0199C33.1153 20.0908 33.2807 20.1381 33.4698 20.1854V19.7363C33.2807 19.689 33.0916 19.6181 32.9262 19.5708ZM22.8096 26.9692C20.3277 25.811 18.0822 24.5109 16.1204 23.2109V23.7073C18.035 24.96 20.2095 26.2128 22.6205 27.3474C24.606 28.2692 26.6388 29.0728 28.6715 29.7347H29.3806V29.9474C30.7279 30.3729 32.0752 30.7038 33.4462 31.0111V30.562C29.357 29.6874 25.7878 28.3874 22.8096 26.9692ZM52.0956 22.9745C51.9538 22.8564 51.812 22.7854 51.6702 22.7145C51.7411 24.9128 51.6702 27.2528 51.4574 29.711C51.5993 29.6401 51.7647 29.5692 51.9065 29.4747C52.1193 27.2055 52.1665 25.0309 52.1193 22.9745H52.0956ZM22.8096 26.9692C20.3277 25.811 18.0822 24.5109 16.1204 23.2109V23.7073C18.035 24.96 20.2095 26.2128 22.6205 27.3474C24.606 28.2692 26.6388 29.0728 28.6715 29.7347H29.3806V29.9474C30.7279 30.3729 32.0752 30.7038 33.4462 31.0111V30.562C29.357 29.6874 25.7878 28.3874 22.8096 26.9692ZM32.9262 19.5708V20.0199C33.1153 20.0908 33.2807 20.1381 33.4698 20.1854V19.7363C33.2807 19.689 33.0916 19.6181 32.9262 19.5708ZM52.0956 22.9745C51.9538 22.8564 51.812 22.7854 51.6702 22.7145C51.7411 24.9128 51.6702 27.2528 51.4574 29.711C51.5993 29.6401 51.7647 29.5692 51.9065 29.4747C52.1193 27.2055 52.1665 25.0309 52.1193 22.9745H52.0956ZM32.9262 19.5708V20.0199C33.1153 20.0908 33.2807 20.1381 33.4698 20.1854V19.7363C33.2807 19.689 33.0916 19.6181 32.9262 19.5708ZM52.0956 22.9745C51.9538 22.8564 51.812 22.7854 51.6702 22.7145C51.7411 24.9128 51.6702 27.2528 51.4574 29.711C51.5993 29.6401 51.7647 29.5692 51.9065 29.4747C52.1193 27.2055 52.1665 25.0309 52.1193 22.9745H52.0956ZM32.9262 19.5708V20.0199C33.1153 20.0908 33.2807 20.1381 33.4698 20.1854V19.7363C33.2807 19.689 33.0916 19.6181 32.9262 19.5708ZM52.0956 22.9745C51.9538 22.8564 51.812 22.7854 51.6702 22.7145C51.7411 24.9128 51.6702 27.2528 51.4574 29.711C51.5993 29.6401 51.7647 29.5692 51.9065 29.4747C52.1193 27.2055 52.1665 25.0309 52.1193 22.9745H52.0956ZM32.9262 19.5708V20.0199C33.1153 20.0908 33.2807 20.1381 33.4698 20.1854V19.7363C33.2807 19.689 33.0916 19.6181 32.9262 19.5708ZM22.8096 26.9692C20.3277 25.811 18.0822 24.5109 16.1204 23.2109V23.7073C18.035 24.96 20.2095 26.2128 22.6205 27.3474C24.606 28.2692 26.6388 29.0728 28.6715 29.7347H29.3806V29.9474C30.7279 30.3729 32.0752 30.7038 33.4462 31.0111V30.562C29.357 29.6874 25.7878 28.3874 22.8096 26.9692ZM52.0956 22.9745C51.9538 22.8564 51.812 22.7854 51.6702 22.7145C51.7411 24.9128 51.6702 27.2528 51.4574 29.711C51.5993 29.6401 51.7647 29.5692 51.9065 29.4747C52.1193 27.2055 52.1665 25.0309 52.1193 22.9745H52.0956ZM52.0956 22.9745C51.9538 22.8564 51.812 22.7854 51.6702 22.7145C51.7411 24.9128 51.6702 27.2528 51.4574 29.711C51.5993 29.6401 51.7647 29.5692 51.9065 29.4747C52.1193 27.2055 52.1665 25.0309 52.1193 22.9745H52.0956ZM32.9262 19.5708V20.0199C33.1153 20.0908 33.2807 20.1381 33.4698 20.1854V19.7363C33.2807 19.689 33.0916 19.6181 32.9262 19.5708ZM22.8096 26.9692C20.3277 25.811 18.0822 24.5109 16.1204 23.2109V23.7073C18.035 24.96 20.2095 26.2128 22.6205 27.3474C24.606 28.2692 26.6388 29.0728 28.6715 29.7347H29.3806V29.9474C30.7279 30.3729 32.0752 30.7038 33.4462 31.0111V30.562C29.357 29.6874 25.7878 28.3874 22.8096 26.9692ZM52.0956 22.9745C51.9538 22.8564 51.812 22.7854 51.6702 22.7145C51.7411 24.9128 51.6702 27.2528 51.4574 29.711C51.5993 29.6401 51.7647 29.5692 51.9065 29.4747C52.1193 27.2055 52.1665 25.0309 52.1193 22.9745H52.0956ZM32.9262 19.5708V20.0199C33.1153 20.0908 33.2807 20.1381 33.4698 20.1854V19.7363C33.2807 19.689 33.0916 19.6181 32.9262 19.5708ZM22.8096 26.9692C20.3277 25.811 18.0822 24.5109 16.1204 23.2109V23.7073C18.035 24.96 20.2095 26.2128 22.6205 27.3474C24.606 28.2692 26.6388 29.0728 28.6715 29.7347H29.3806V29.9474C30.7279 30.3729 32.0752 30.7038 33.4462 31.0111V30.562C29.357 29.6874 25.7878 28.3874 22.8096 26.9692ZM32.9262 19.5708V20.0199C33.1153 20.0908 33.2807 20.1381 33.4698 20.1854V19.7363C33.2807 19.689 33.0916 19.6181 32.9262 19.5708ZM32.9262 19.5708V20.0199C33.1153 20.0908 33.2807 20.1381 33.4698 20.1854V19.7363C33.2807 19.689 33.0916 19.6181 32.9262 19.5708ZM32.9262 19.5708V20.0199C33.1153 20.0908 33.2807 20.1381 33.4698 20.1854V19.7363C33.2807 19.689 33.0916 19.6181 32.9262 19.5708ZM32.9262 19.5708V20.0199C33.1153 20.0908 33.2807 20.1381 33.4698 20.1854V19.7363C33.2807 19.689 33.0916 19.6181 32.9262 19.5708Z" fill="white"/>
<path d="M48.0064 2.90733C43.799 1.04002 39.1426 0 34.2498 0C22.715 0 12.4802 5.76739 6.2874 14.6076H6.80741C9.26564 11.1566 12.3384 8.20198 15.8839 5.88557C16.0021 5.81466 16.1203 5.74375 16.2385 5.6492C18.7913 4.0419 21.5568 2.74187 24.4878 1.84367C24.6296 1.7964 24.7714 1.74913 24.8896 1.72549C27.8678 0.850926 31.0115 0.401826 34.2734 0.401826C35.0061 0.401826 35.7389 0.425463 36.4716 0.472737C36.8735 0.496373 37.2753 0.52001 37.6771 0.567284C41.199 0.921836 44.5791 1.82004 47.6991 3.19097C47.8882 3.26188 48.0537 3.33279 48.2428 3.42734C52.3556 5.29465 56.0193 7.98925 59.0684 11.2748C59.1866 11.393 59.3048 11.5111 59.3993 11.653C61.0303 13.4966 62.4958 15.5058 63.7013 17.6567C63.7722 17.7749 63.8431 17.8931 63.914 18.0349C65.3086 20.5877 66.3959 23.3296 67.1286 26.2132C67.1522 26.3551 67.1995 26.4969 67.2231 26.6151C67.8141 29.1206 68.1213 31.7443 68.1213 34.4389C68.1213 35.2661 68.0977 36.0698 68.0268 36.8735C68.0268 37.0153 68.0268 37.1807 68.0032 37.3226C67.6722 41.2463 66.7031 44.9809 65.1667 48.4082C65.0722 48.5973 65.0013 48.7864 64.9067 48.9519C64.6231 49.5428 64.3394 50.1337 64.0322 50.701L64.1267 50.8901L64.2449 51.1737C66.9868 46.21 68.5704 40.4899 68.5704 34.4152C68.5704 20.3277 60.1321 8.17834 48.0773 2.83642L48.0064 2.90733ZM63.3703 51.8119C62.2358 53.7502 60.9121 55.5466 59.423 57.2011C59.163 57.4848 58.903 57.792 58.6193 58.0757C52.4738 64.5285 43.799 68.5468 34.2261 68.5468C33.8952 68.5468 33.5879 68.5468 33.257 68.5468C33.0679 68.5468 32.8552 68.5468 32.6661 68.5468C21.4859 68.0268 11.7002 62.023 5.90921 53.1592C5.79102 52.9938 5.69648 52.8283 5.57829 52.6629C4.91646 51.5992 4.3019 50.5119 3.75826 49.401C3.54552 48.9755 3.35643 48.5737 3.19097 48.1482C1.44185 44.1536 0.4491 39.7571 0.378189 35.148H0.425463C0.425463 34.9352 0.425463 34.7461 0.425463 34.5334V34.4625C0.425463 30.5151 1.11093 26.7333 2.34005 23.2114C2.41096 22.9986 2.48187 22.7859 2.57641 22.5968C3.47461 20.1622 4.65645 17.8458 6.07466 15.7185V15.293V15.0094C4.46736 17.3494 3.1437 19.9022 2.12731 22.6204C0.756378 26.3551 0 30.3733 0 34.5807C0 39.4499 1.01638 44.1063 2.83642 48.3137C2.83642 48.3137 2.83642 48.3137 2.83642 48.3373C8.13107 60.5103 20.2095 69.0432 34.2261 69.0432C44.319 69.0432 53.3956 64.6231 59.683 57.603C61.2667 55.8538 62.6376 53.9392 63.8431 51.8828H63.3703V51.8119Z" fill="white"/>
<path d="M6.21635 51.8115C6.1218 52.2606 6.02726 52.6861 5.93271 53.1352C5.93271 53.1588 5.93271 53.2061 5.93271 53.2298L5.69634 53.1825H5.53088C5.53088 53.1825 5.55452 53.0407 5.55452 52.9698C5.57816 52.8516 5.60179 52.7334 5.62543 52.6152C5.69634 52.2134 5.79089 51.8115 5.88544 51.4097C5.90907 51.2443 5.95635 51.1024 5.97998 50.937C6.00362 50.7952 6.02726 50.677 6.07453 50.5352V51.7879H6.23999L6.21635 51.8115Z" fill="white"/>
<path d="M37.6535 0.589904C37.6535 0.589904 33.6825 1.36992 28.4824 5.76637C28.3878 5.86092 28.2697 5.95546 28.1515 6.05001C27.2769 6.80639 26.3314 7.68095 25.386 8.69734C24.2278 9.92645 22.975 11.3683 21.6986 13.0938C21.6277 13.212 21.5332 13.3065 21.4622 13.4247C21.1786 13.8029 20.895 14.2047 20.6113 14.6302H20.0913C20.4459 14.1102 20.8004 13.6138 21.155 13.1411C21.2259 13.0229 21.3204 12.9047 21.3913 12.8101C22.5968 11.2028 23.8259 9.73736 25.126 8.39006C26.0478 7.42095 26.946 6.54639 27.8206 5.81364C27.9387 5.7191 28.0333 5.62455 28.1515 5.53C31.8388 2.3863 34.888 1.06264 36.448 0.54263C36.4716 0.54263 36.4953 0.54263 36.5189 0.518994C37.1335 0.306262 37.5117 0.235352 37.5589 0.235352L37.6298 0.613541L37.6535 0.589904Z" fill="white"/>
<path d="M51.292 14.6319C51.1502 14.6319 51.0084 14.6319 50.8665 14.6319C50.7247 13.8282 50.5829 13.0718 50.4174 12.3391C50.3938 12.1973 50.3465 12.0555 50.3229 11.9373C49.472 8.06083 48.3847 5.10623 47.6992 3.23892C47.6992 3.21528 47.6992 3.19165 47.6756 3.16801C47.6756 3.14437 47.6519 3.0971 47.6283 3.07346L48.0065 2.93164C48.0538 3.07346 48.1247 3.23892 48.1719 3.40438C48.1719 3.42801 48.1719 3.45165 48.1956 3.47529C48.9047 5.38987 49.8974 8.24993 50.7247 11.9373C50.7484 12.0791 50.7956 12.2209 50.8193 12.3627C50.9847 13.0955 51.1265 13.8755 51.2684 14.6791L51.292 14.6319Z" fill="white"/>
<path d="M49.6137 41.388C49.5428 41.6007 49.4955 41.7898 49.4246 42.0026C49.3774 42.1444 49.3537 42.2862 49.3065 42.428C48.0537 46.5172 46.5173 50.1573 44.8391 53.3482C44.7682 53.4901 44.6736 53.6555 44.6027 53.7973C42.6409 57.5083 40.4663 60.6284 38.3153 63.2521C38.1971 63.4175 38.0553 63.5593 37.9135 63.7248C36.3298 65.6157 34.7462 67.223 33.2807 68.5703C33.2807 68.5703 33.2807 68.5703 33.257 68.594C33.1389 68.7122 32.997 68.8304 32.8789 68.9485L32.5952 68.6413C32.5952 68.6413 32.6425 68.594 32.6661 68.5703C32.6661 68.5703 32.6661 68.5703 32.6898 68.5467C34.1552 67.223 35.7389 65.6157 37.3462 63.7248C37.4644 63.583 37.6062 63.4175 37.748 63.2757C39.899 60.6756 42.0972 57.5556 44.1063 53.8446C44.2009 53.7028 44.2718 53.5373 44.3427 53.3955C46.0209 50.2045 47.5573 46.6117 48.8337 42.5226C48.881 42.3807 48.9283 42.2389 48.9519 42.0971C49.0937 41.648 49.2119 41.2225 49.3537 40.7734L49.5901 41.4116L49.6137 41.388Z" fill="white"/>
<path d="M51.8117 30.3027C51.8117 30.5391 51.7644 30.7518 51.7408 30.9882C51.7408 31.13 51.7172 31.2955 51.6935 31.4373C51.5517 31.4609 51.4099 31.4846 51.2681 31.5082C51.2681 31.3664 51.3153 31.2009 51.3153 31.0591C51.339 30.87 51.3626 30.6573 51.3862 30.4682H51.4099C51.5517 30.4209 51.6935 30.3736 51.8117 30.3264V30.3027Z" fill="white"/>
<path d="M51.8828 29.476C51.741 29.5705 51.5992 29.665 51.4337 29.7123C51.6701 27.2541 51.7174 24.914 51.6464 22.7158C51.7883 22.7867 51.9301 22.8576 52.0719 22.9758C52.1192 25.0322 52.0719 27.1832 51.8592 29.476H51.8828Z" fill="white"/>
<path d="M59.4938 11.6535C59.4938 11.6535 59.3992 11.6535 59.3756 11.6535C56.2792 12.079 53.4427 12.268 50.8427 12.2917C50.7009 12.2917 50.559 12.2917 50.4172 12.2917C50.299 12.2917 50.2045 12.2917 50.0863 12.2917C40.8916 12.2917 34.9351 10.1644 31.295 8.10797C30.0659 7.4225 29.0259 6.68976 28.175 5.98065C28.0568 5.88611 27.9622 5.79156 27.844 5.69701C25.7167 3.90061 24.7476 2.31695 24.464 1.79694C24.464 1.7733 24.4403 1.74966 24.4403 1.72602C24.4167 1.67875 24.3931 1.63148 24.3931 1.63148L24.7713 1.44238C24.7713 1.44238 24.7949 1.51329 24.8658 1.60784C24.8658 1.60784 24.8894 1.65511 24.8894 1.67875C25.1967 2.2224 26.1895 3.73516 28.175 5.41337C28.2695 5.50792 28.3877 5.60246 28.5059 5.69701C29.3568 6.38248 30.3495 7.06795 31.5314 7.75342C35.1478 9.80982 41.1279 11.9135 50.3227 11.8662C50.4645 11.8662 50.6063 11.8662 50.7481 11.8662C53.2773 11.8426 56.0191 11.6535 59.0447 11.2517C59.0919 11.2517 59.1392 11.2517 59.1865 11.2517C59.281 11.2517 59.3519 11.228 59.4465 11.228L59.4938 11.6062V11.6535Z" fill="white"/>
<path d="M23.4951 14.6082H22.8332C22.3369 14.2064 21.8878 13.8045 21.4623 13.4027C21.3678 13.3082 21.2496 13.2136 21.155 13.0954C17.8459 9.88083 16.2622 6.76076 15.8604 5.8862C15.8367 5.83893 15.8131 5.79165 15.7895 5.76802C15.7658 5.69711 15.7422 5.64983 15.7422 5.64983L16.1204 5.48438C16.1204 5.48438 16.1204 5.48437 16.1204 5.53165C16.1204 5.55529 16.144 5.60256 16.1677 5.64983C16.5222 6.40621 18.0586 9.52627 21.3678 12.7645C21.4623 12.8591 21.5805 12.9536 21.675 13.0718C22.2187 13.5918 22.8096 14.1118 23.4478 14.6082H23.4951Z" fill="white"/>
<path d="M33.4698 19.7377V20.1868C33.2807 20.1396 33.0916 20.0923 32.9261 20.0214V19.5723C33.1152 19.6195 33.2807 19.6905 33.4698 19.7377Z" fill="white"/>
<path d="M64.0557 17.9887C64.0084 17.9887 63.9375 18.0124 63.8902 18.036C63.0156 18.3197 62.1647 18.6033 61.3138 18.8633C61.2192 18.7451 61.1247 18.6269 61.0302 18.5088C61.9047 18.2487 62.7793 17.9651 63.6775 17.6578C63.7248 17.6578 63.7957 17.6342 63.8429 17.6106C63.8666 17.6106 63.8902 17.6106 63.9375 17.5869L64.0793 17.9887H64.0557Z" fill="white"/>
<path d="M33.4696 30.563V31.0121C32.0987 30.7284 30.7514 30.3739 29.4041 29.9484V29.7357H28.695C26.6386 29.0738 24.6294 28.2702 22.6439 27.3484C20.233 26.2138 18.0584 24.961 16.1438 23.7083V23.2119C18.1057 24.5119 20.3275 25.7883 22.833 26.9702C25.8349 28.3884 29.4041 29.6884 33.4696 30.563Z" fill="white"/>
<path d="M51.3153 31.0592C51.4572 31.0356 51.599 31.0119 51.7408 30.9883C51.7408 31.1301 51.7172 31.2956 51.6935 31.4374C51.5517 31.461 51.4099 31.4847 51.2681 31.5083C51.2681 31.3665 51.3153 31.201 51.3153 31.0592Z" fill="white"/>
<path d="M67.4122 26.5452C67.4122 26.5452 67.3886 26.5452 67.365 26.5688C67.2941 26.5925 67.2468 26.6161 67.1759 26.6397C65.9468 27.207 64.7176 27.727 63.4885 28.1998C63.5122 28.0343 63.5358 27.8925 63.5594 27.727C64.7176 27.2779 65.8995 26.7816 67.0813 26.2379C67.0813 26.2379 67.1759 26.1906 67.2468 26.167L67.2941 26.2852L67.4122 26.5452Z" fill="white"/>
<path d="M6.05099 29.2863V29.9954C3.82913 26.9699 2.74183 24.3226 2.31637 23.1644C2.24546 22.9753 2.19819 22.8335 2.17455 22.7389C2.12727 22.6207 2.10364 22.5498 2.10364 22.5498L2.24546 22.5026L2.50546 22.4316C2.50546 22.4316 2.50546 22.4789 2.5291 22.5498C2.7182 23.1644 3.66367 25.9535 6.02735 29.31L6.05099 29.2863Z" fill="white"/>
<path d="M33.4696 43.0906V43.4925C27.1586 43.1143 21.5566 41.6724 16.782 39.1669C16.5693 39.0487 16.3565 38.9306 16.1438 38.836V38.3633C16.4274 38.5051 16.6874 38.6706 16.9947 38.8124C21.7694 41.2942 27.2767 42.7361 33.4932 43.1143L33.4696 43.0906Z" fill="white"/>
<path d="M49.9684 42.2862C49.7556 42.3335 49.5193 42.3571 49.3065 42.4044C49.1647 42.428 48.9992 42.4517 48.8574 42.4989C48.9047 42.3571 48.952 42.2153 48.9756 42.0735C49.1174 42.0498 49.2829 42.0262 49.4247 42.0026C49.5429 41.9789 49.6847 41.9553 49.8265 41.9316L49.9684 42.3098V42.2862Z" fill="white"/>
<path d="M68.2631 37.2514C68.2631 37.2514 68.2158 37.2514 68.1685 37.2751C68.0976 37.2987 68.0267 37.3223 67.9558 37.346C65.0721 38.386 62.2593 39.2842 59.4938 40.0406L59.3284 39.6624C62.1175 38.8824 65.0012 37.9605 67.9794 36.8969C68.0267 36.8969 68.074 36.8732 68.0976 36.8496L68.1685 37.0387L68.2395 37.2278L68.2631 37.2514Z" fill="white"/>
<path d="M6.05107 40.3483V40.8919C3.07283 38.2919 1.18189 36.0464 0.401871 35.1009H0.425508C0.283687 34.9118 0.165503 34.77 0.118229 34.6991H0.0945921L0.0236816 34.6045L0.0945921 34.5573L0.378234 34.3682C0.378234 34.3682 0.378234 34.3682 0.401871 34.4154C0.685513 34.7936 2.6001 37.2755 6.05107 40.3483Z" fill="white"/>
<path d="M56.3264 51.8117C52.3554 52.8517 48.4553 53.5135 44.6025 53.7972C44.4371 53.7972 44.2716 53.8208 44.1062 53.8208C42.9243 53.8917 41.7661 53.939 40.6079 53.939C39.4497 53.939 38.2915 53.8917 37.1333 53.8208C29.9477 53.3717 23.0694 51.4571 16.6874 48.148C16.4984 48.0534 16.3329 47.9589 16.1438 47.8643V47.3916C16.3802 47.5334 16.6402 47.6516 16.9002 47.7934C23.3767 51.1499 32.6423 54.1517 44.3662 53.3717C44.5316 53.3717 44.6971 53.3481 44.8625 53.3481C47.9353 53.1117 51.1972 52.639 54.6009 51.8353H56.3264V51.8117Z" fill="white"/>
<path d="M65.356 48.8096C65.356 48.8096 65.1905 48.8805 65.096 48.9042C65.0014 48.9278 64.9305 48.9751 64.8596 48.9987C64.3869 49.1878 63.9378 49.3533 63.465 49.5424L63.2996 49.1642C63.8905 48.9514 64.505 48.7151 65.1196 48.4787C65.1432 48.4787 65.1905 48.4551 65.2141 48.4551L65.2851 48.5969L65.3796 48.8333L65.356 48.8096Z" fill="white"/>
<path d="M6.05096 51.0306V51.5979C6.05096 51.5979 5.93277 51.4797 5.86186 51.4324C4.9873 50.6287 4.30183 49.9196 3.80546 49.376C3.54545 49.0687 3.30909 48.8323 3.16726 48.6433C3.00181 48.4542 2.90726 48.3123 2.85999 48.2651L2.97817 48.2414H3.04908L3.21454 48.0996C3.21454 48.0996 3.21454 48.0996 3.26181 48.1469C3.47454 48.4069 4.39638 49.4942 5.98005 50.9833C5.98005 50.9833 6.02732 51.0542 6.07459 51.0779L6.05096 51.0306Z" fill="white"/>
<path d="M59.7067 57.5318C59.4704 57.65 59.2104 57.7918 58.974 57.91C58.974 57.91 58.7613 58.0282 58.6431 58.0755C51.6702 61.5501 44.721 63.441 37.9372 63.7011C37.7481 63.7011 37.559 63.7011 37.3936 63.7011C37.0627 63.7011 36.7318 63.7011 36.4008 63.7011H36.2827C30.1844 63.7011 24.2279 62.401 18.555 59.8246C13.0713 57.3427 8.95848 54.1754 6.31116 51.7881H6.92571C9.52577 54.1045 13.4731 57.0591 18.6496 59.4228C23.5188 61.6446 29.9953 63.512 37.7718 63.2519C37.9609 63.2519 38.1263 63.2519 38.3154 63.2519C44.5792 62.9447 51.6939 61.2428 59.4467 57.2246C59.4704 57.2246 59.494 57.2009 59.5177 57.1773L59.5649 57.2718L59.7067 57.5555V57.5318Z" fill="white"/>
<path d="M6.07485 15.221H6.05115V15.1973L6.07485 15.221Z" fill="white"/>
<path d="M6.28754 51.8104H6.21643C6.21643 51.8104 6.21643 51.763 6.21643 51.7393C6.21643 51.7393 6.26383 51.7867 6.28754 51.8104Z" fill="white"/>
<path d="M15.4587 22.383V30.4196H28.7189V37.1088H15.4587V51.1254H6.73669V15.292H32.2408V22.383H15.4587Z" fill="white"/>
<path d="M51.4101 30.4428C51.4101 30.4428 51.4101 30.4428 51.3865 30.4428C51.3629 30.6319 51.3392 30.8446 51.3156 31.0337C51.3156 31.1755 51.2919 31.3174 51.2683 31.4828C51.4101 31.4828 51.552 31.4355 51.6938 31.4119C51.6938 31.2701 51.741 31.1046 51.741 30.9628C51.7647 30.7264 51.7883 30.5137 51.812 30.2773C51.6938 30.3483 51.552 30.3955 51.4101 30.4192V30.4428Z" fill="white"/>
<path d="M51.4101 30.4428C51.4101 30.4428 51.4101 30.4428 51.3865 30.4428C51.3629 30.6319 51.3392 30.8446 51.3156 31.0337C51.3156 31.1755 51.2919 31.3174 51.2683 31.4828C51.4101 31.4828 51.552 31.4355 51.6938 31.4119C51.6938 31.2701 51.741 31.1046 51.741 30.9628C51.7647 30.7264 51.7883 30.5137 51.812 30.2773C51.6938 30.3483 51.552 30.3955 51.4101 30.4192V30.4428Z" fill="white"/>
<path d="M62.8269 49.7767L62.6614 49.3986L58.8559 40.2747L58.6904 39.8966L56.7758 35.311C60.085 33.8219 62.0705 31.5528 62.7323 28.5272C62.756 28.3618 62.8032 28.22 62.8269 28.0545C62.9451 27.4163 62.9923 26.7545 62.9923 26.069C62.9923 23.8708 62.425 21.8617 61.2668 20.0653C61.0541 19.7343 60.8414 19.4271 60.605 19.1198C60.5105 19.0016 60.4159 18.8834 60.3214 18.7652C59.3523 17.6543 58.194 16.827 56.894 16.3306C55.4522 15.7634 53.6085 15.4561 51.3866 15.3379C51.2448 15.3379 51.103 15.3379 50.9612 15.3379C50.6066 15.3379 50.2521 15.3379 49.8975 15.3379H34.1554V51.195H42.6174V36.9892H48.6211L49.6612 39.7075L49.9212 40.3457L50.5121 41.8584L50.6539 42.2366L54.1285 51.195H63.4178L62.8505 49.824L62.8269 49.7767ZM53.443 28.8818C52.9467 29.5436 52.403 30.0164 51.8121 30.3C51.8121 30.5364 51.7648 30.7491 51.7412 30.9855C51.7412 31.1273 51.7176 31.2928 51.6939 31.4346C51.5521 31.4582 51.4103 31.4818 51.2685 31.5055C51.2685 31.3637 51.3157 31.1982 51.3157 31.0564C51.3394 30.8673 51.363 30.6546 51.3866 30.4655C50.6303 30.7018 49.4248 30.82 47.7702 30.82H42.6174V21.6726H47.5811C49.4957 21.6726 50.8194 21.7671 51.5285 21.9562C51.5757 21.9562 51.623 21.9798 51.6703 22.0035C51.8121 22.0508 51.9539 22.098 52.0958 22.1926C52.5921 22.4526 53.0412 22.8544 53.4667 23.4217C54.0576 24.2017 54.3649 25.0999 54.3649 26.0926C54.3649 27.1563 54.0576 28.0781 53.4667 28.8818H53.443Z" fill="white"/>
</svg>
