<svg width="67" height="71" viewBox="0 0 67 71" fill="none" xmlns="http://www.w3.org/2000/svg">
<rect width="66.008" height="70" transform="matrix(-1 0 0 -1 66.0513 70.1426)" fill="white"/>
<path d="M33.0471 50.6426C27.941 50.6426 23.0441 48.4915 19.4336 44.6627C15.8231 40.8338 13.7947 35.6407 13.7947 30.2259C13.7947 24.8111 15.8231 19.618 19.4336 15.7891C23.0441 11.9603 27.941 9.80924 33.0471 9.80924C38.1531 9.80924 43.05 11.9603 46.6605 15.7891C50.271 19.618 52.2994 24.8111 52.2994 30.2259C52.2994 35.6407 50.271 40.8338 46.6605 44.6627C43.05 48.4915 38.1531 50.6426 33.0471 50.6426ZM33.0471 36.0592C34.5059 36.0592 35.905 35.4447 36.9366 34.3507C37.9682 33.2567 38.5477 31.773 38.5477 30.2259C38.5477 28.6788 37.9682 27.1951 36.9366 26.1011C35.905 25.0072 34.5059 24.3926 33.0471 24.3926C31.5882 24.3926 30.1891 25.0072 29.1575 26.1011C28.1259 27.1951 27.5464 28.6788 27.5464 30.2259C27.5464 31.773 28.1259 33.2567 29.1575 34.3507C30.1891 35.4447 31.5882 36.0592 33.0471 36.0592ZM40.1429 68.1426C39.25 68.1427 38.3704 67.9122 37.5802 67.4711C36.7901 67.03 36.113 66.3916 35.6076 65.6109L35.3683 65.2026L30.5965 56.3476C33.9211 56.7035 37.2792 56.3394 40.4672 55.2775C43.6551 54.2156 46.6064 52.478 49.142 50.1701L49.7801 49.5692L56.2626 61.5976C56.6063 62.235 56.7933 62.9539 56.8062 63.688C56.8191 64.4221 56.6575 65.1479 56.3364 65.7984C56.0153 66.4489 55.545 67.0033 54.9688 67.4104C54.3926 67.8175 53.729 68.0643 53.0392 68.128L52.6844 68.1426H40.1429ZM13.4152 68.1426C12.6925 68.1428 11.9824 67.9418 11.356 67.5595C10.7297 67.1773 10.209 66.6272 9.84608 65.9645C9.48319 65.3017 9.29084 64.5495 9.28828 63.7831C9.28571 63.0167 9.47303 62.2631 9.83149 61.5976L16.314 49.5692C18.6229 51.8186 21.3136 53.5824 24.2432 54.7667L29.8677 65.2026C29.9954 65.4405 30.1388 65.6685 30.2967 65.8851C29.7826 66.5878 29.1238 67.1565 28.3706 67.5478C27.6174 67.9391 26.7899 68.1425 25.9512 68.1426H13.4152Z" fill="#82BC49"/>
</svg>
